<mxfile host="app.diagrams.net" modified="2023-09-29T18:17:34.268Z" agent="Mozilla/5.0 (Windows NT 10.0; Win64; x64) AppleWebKit/537.36 (KHTML, like Gecko) Chrome/117.0.0.0 Safari/537.36" version="21.8.1" etag="fRT72nj6vC3EzzAg9Nsc" type="device">
  <diagram name="PÃ¡gina-1" id="UwZR17_NzYscenHBFYYX">
    <mxGraphModel dx="1434" dy="758" grid="1" gridSize="10" guides="1" tooltips="1" connect="1" arrows="1" fold="1" page="1" pageScale="1" pageWidth="827" pageHeight="1169" math="0" shadow="0">
      <root>
        <mxCell id="0" />
        <mxCell id="1" parent="0" />
        <mxCell id="rWVDaRYgZzf25Qfgkbk3-1" value="AWS Account" style="points=[[0,0],[0.25,0],[0.5,0],[0.75,0],[1,0],[1,0.25],[1,0.5],[1,0.75],[1,1],[0.75,1],[0.5,1],[0.25,1],[0,1],[0,0.75],[0,0.5],[0,0.25]];outlineConnect=0;html=1;whiteSpace=wrap;fontSize=14;fontStyle=1;container=0;pointerEvents=0;collapsible=0;recursiveResize=0;shape=mxgraph.aws4.group;grIcon=mxgraph.aws4.group_aws_cloud;verticalAlign=top;align=left;spacingLeft=30;dashed=0;rounded=1;fontFamily=Helvetica;" parent="1" vertex="1">
          <mxGeometry x="14" y="122" width="516" height="538" as="geometry" />
        </mxCell>
        <mxCell id="zLIn52jZhEf5yXE7sG_Y-4" value="Infrastructure created by AWS CDK" style="dashed=1;verticalAlign=top;fontStyle=0;whiteSpace=wrap;html=1;fontSize=11;" vertex="1" parent="1">
          <mxGeometry x="24" y="220" width="496" height="430" as="geometry" />
        </mxCell>
        <mxCell id="zLIn52jZhEf5yXE7sG_Y-9" style="edgeStyle=orthogonalEdgeStyle;rounded=1;orthogonalLoop=1;jettySize=auto;html=1;targetPerimeterSpacing=10;sourcePerimeterSpacing=25;endArrow=none;endFill=0;dashed=1;fontSize=14;strokeColor=#999999;" edge="1" parent="1" source="rWVDaRYgZzf25Qfgkbk3-5" target="2">
          <mxGeometry relative="1" as="geometry">
            <mxPoint x="118" y="390" as="sourcePoint" />
            <mxPoint x="495" y="563" as="targetPoint" />
            <Array as="points">
              <mxPoint x="79" y="559" />
            </Array>
          </mxGeometry>
        </mxCell>
        <mxCell id="rWVDaRYgZzf25Qfgkbk3-5" value="Athena" style="sketch=0;points=[[0,0,0],[0.25,0,0],[0.5,0,0],[0.75,0,0],[1,0,0],[0,1,0],[0.25,1,0],[0.5,1,0],[0.75,1,0],[1,1,0],[0,0.25,0],[0,0.5,0],[0,0.75,0],[1,0.25,0],[1,0.5,0],[1,0.75,0]];outlineConnect=0;fontColor=#232F3E;fillColor=#8C4FFF;strokeColor=#ffffff;dashed=0;verticalLabelPosition=bottom;verticalAlign=top;align=center;html=1;fontSize=12;fontStyle=1;aspect=fixed;shape=mxgraph.aws4.resourceIcon;resIcon=mxgraph.aws4.athena;rounded=1;fontFamily=Helvetica;" parent="1" vertex="1">
          <mxGeometry x="40" y="348" width="78" height="78" as="geometry" />
        </mxCell>
        <mxCell id="rWVDaRYgZzf25Qfgkbk3-4" value="STAGE" style="sketch=0;points=[[0,0,0],[0.25,0,0],[0.5,0,0],[0.75,0,0],[1,0,0],[0,1,0],[0.25,1,0],[0.5,1,0],[0.75,1,0],[1,1,0],[0,0.25,0],[0,0.5,0],[0,0.75,0],[1,0.25,0],[1,0.5,0],[1,0.75,0]];outlineConnect=0;fontColor=#232F3E;fillColor=#7AA116;strokeColor=#ffffff;dashed=0;verticalLabelPosition=bottom;verticalAlign=top;align=center;html=1;fontSize=12;fontStyle=1;aspect=fixed;shape=mxgraph.aws4.resourceIcon;resIcon=mxgraph.aws4.s3;rounded=1;fontFamily=Helvetica;" parent="1" vertex="1">
          <mxGeometry x="262" y="348" width="78" height="78" as="geometry" />
        </mxCell>
        <mxCell id="rWVDaRYgZzf25Qfgkbk3-8" style="edgeStyle=orthogonalEdgeStyle;rounded=1;orthogonalLoop=1;jettySize=auto;html=1;startArrow=classic;startFill=1;endArrow=none;endFill=0;targetPerimeterSpacing=5;sourcePerimeterSpacing=5;fillColor=#f5f5f5;strokeColor=#999999;fontFamily=Helvetica;fontStyle=0;verticalAlign=top;fontSize=14;" parent="1" source="rWVDaRYgZzf25Qfgkbk3-5" target="rWVDaRYgZzf25Qfgkbk3-4" edge="1">
          <mxGeometry relative="1" as="geometry" />
        </mxCell>
        <mxCell id="zLIn52jZhEf5yXE7sG_Y-16" style="edgeStyle=orthogonalEdgeStyle;rounded=0;orthogonalLoop=1;jettySize=auto;html=1;dashed=1;endArrow=none;endFill=0;strokeColor=#999999;" edge="1" parent="1" source="rWVDaRYgZzf25Qfgkbk3-3" target="2">
          <mxGeometry relative="1" as="geometry" />
        </mxCell>
        <mxCell id="rWVDaRYgZzf25Qfgkbk3-3" value="Glue Job" style="sketch=0;points=[[0,0,0],[0.25,0,0],[0.5,0,0],[0.75,0,0],[1,0,0],[0,1,0],[0.25,1,0],[0.5,1,0],[0.75,1,0],[1,1,0],[0,0.25,0],[0,0.5,0],[0,0.75,0],[1,0.25,0],[1,0.5,0],[1,0.75,0]];outlineConnect=0;fontColor=#232F3E;fillColor=#8C4FFF;strokeColor=#ffffff;dashed=0;verticalLabelPosition=bottom;verticalAlign=top;align=center;html=1;fontSize=12;fontStyle=1;aspect=fixed;shape=mxgraph.aws4.resourceIcon;resIcon=mxgraph.aws4.glue;rounded=1;fontFamily=Helvetica;" parent="1" vertex="1">
          <mxGeometry x="336" y="520" width="78" height="78" as="geometry" />
        </mxCell>
        <mxCell id="rWVDaRYgZzf25Qfgkbk3-9" style="edgeStyle=orthogonalEdgeStyle;rounded=1;orthogonalLoop=1;jettySize=auto;html=1;startArrow=none;startFill=0;targetPerimeterSpacing=25;sourcePerimeterSpacing=5;fillColor=#f5f5f5;strokeColor=#999999;fontFamily=Helvetica;fontStyle=0;verticalAlign=top;fontSize=14;endArrow=classic;endFill=1;" parent="1" source="rWVDaRYgZzf25Qfgkbk3-3" target="rWVDaRYgZzf25Qfgkbk3-4" edge="1">
          <mxGeometry relative="1" as="geometry">
            <Array as="points">
              <mxPoint x="300" y="551" />
            </Array>
          </mxGeometry>
        </mxCell>
        <mxCell id="2" value="Glue Catalog" style="sketch=0;outlineConnect=0;fontColor=#232F3E;gradientColor=none;fillColor=#4D27AA;strokeColor=none;dashed=0;verticalLabelPosition=bottom;verticalAlign=top;align=center;html=1;fontSize=12;fontStyle=1;aspect=fixed;pointerEvents=1;shape=mxgraph.aws4.glue_data_catalog;fontFamily=Helvetica;" parent="1" vertex="1">
          <mxGeometry x="200" y="520" width="72" height="78" as="geometry" />
        </mxCell>
        <mxCell id="zLIn52jZhEf5yXE7sG_Y-5" style="edgeStyle=orthogonalEdgeStyle;rounded=1;orthogonalLoop=1;jettySize=auto;html=1;targetPerimeterSpacing=5;sourcePerimeterSpacing=30;fillColor=#f5f5f5;strokeColor=#999999;fontSize=14;" edge="1" parent="1" source="zLIn52jZhEf5yXE7sG_Y-3" target="zLIn52jZhEf5yXE7sG_Y-13">
          <mxGeometry relative="1" as="geometry">
            <mxPoint x="410" y="300" as="targetPoint" />
            <Array as="points">
              <mxPoint x="78" y="310" />
              <mxPoint x="460" y="310" />
            </Array>
          </mxGeometry>
        </mxCell>
        <mxCell id="zLIn52jZhEf5yXE7sG_Y-3" value="AWS CDK" style="shape=image;verticalLabelPosition=bottom;labelBackgroundColor=default;verticalAlign=top;aspect=fixed;imageAspect=0;image=data:image/png,iVBORw0KGgoAAAANSUhEUgAAAfQAAAH0CAYAAADL1t+KAAAACXBIWXMAAAsTAAALEwEAmpwYAAAgAElEQVR4nOydeXxU1fn/P5mQQDITtiwzoGxJqAhKgkurLIobm9aNxV0WtQVxqStaWxesC2Lrgoh1A6RWqyDaRSB+qyJLa6tCqIL9SZClQiYJEGBmAgkkvz8my0zmnnvPOffcO3dmnuf16qty5zmf87n3Tu57zr3PPSdt5PjNTdCKNM2teh/EZmqm8rdX4YGVmmZaw5r9ENtlAQ8KNLTPp6APEcvsDvllBTQsaQ8gzQEeWBpCyjbuh2XnkynOvFDwZoomm/LAVjCvYdV+iJ06e/dD6K9D6BpmVkA7nXWeXUwRbczrfRCbqZnK316FB1Zqk2kNa/ZDbJcFPCjQ0D6fgj5ELLM75JcV0LCkPYAmB3hgaQgp27gflp1PpjjzQsGbKZpsygNbwbyGVfshdurs3Q+hvw6ha5hZAe101nlmA123X4K6Kg8EdekO+WUdAFSCunh7grqcBkHdIDmJoa4PdN1+CeqqPBDUpTvkl3UAUAnq4u0J6nIaBHWD5CSFujHQdfslqKvyQFCX7pBf1gFAJaiLtyeoy2kQ1A2SkxDqfEDX7ZegrsoDQV26Q35ZBwCVoC7enqAup0FQN0hOMqi7zJsRM0RQN0olqEt2yC/rAKAS1MXbE9TlNAjqBslJBHWXGjNiIgR1o1SCumSH/LIOACpBXbw9QV1Og6BukJwkUHfpfShmRkyEoG6USlCX7JBf1gFAJaiLtyeoy2kQ1A2SkwDqLr0Pxc2IiRDUjVIJ6pId8ss6AKgEdfH2BHU5DYK6QXKCQz22KI6gHrGZoC6qQVCXlYi/B4K6kThBXTeZoC7nQeF1W7vKnaAesZmgLqpBUJeViL8HgrqROEFdN5mgLudB0XXbZZ0ZMRGCulEqQV2yQ35ZBwCVoC7enqAup0FQN0hOQKi7rDUjJkJQN0olqEt2yC/rAKAS1MXbE9TlNAjqBskJBvWIW+4EdaNUgrq4BkFdViL+HgjqRuIEdd1kgrqcBxPX3HbP0AnqRqkEdXENgrqsRPw9ENSNxAnquskEdTkPktdcjaI4grpRKkFdXIOgLisRfw8EdSNxgrpuMkFdzoPENZcxlztB3SiVoC6uQVCXlYi/B4K6kThBXTeZoC7nQfCaq7M4C0HdKJWgLq5BUJeViL8HgrqROEFdN5mgLudB4LtmsNoaQd0olaAurkFQl5WIvweCupE4QV03maAu54Hzu8axfCpB3SiVoC6uQVCXlYi/B4K6kThBXTeZoC7ngeO7xrkeOkHdKJWgLq5BUJeViL8HgrqROEFdN5mgLufB4LvGCXQrzYiJENSNUgnqkh3yyzoAqAR18fYEdTkNgrpBsoOg7rL9gBDUDTQI6lI+COpx8UBQNxInqOsmE9TlPDC+ay4gDgeEoG6gQVCX8kFQj4sHgrqROEFdN5mgLudBI7f1ljtBXa0GQV1cg6AuKxF/DwR1I3GCum4yQV3OQ7vcqGfoBHW1GgR1cQ2CuqxE/D0Q1I3ECeq6yQR1OQ8RuTFFcQR1tRoEdXENgrqsRPw9ENSNxAnquskEdTkPzbma66ET1NVqENTFNQjqshLx90BQNxInqOsmE9TlPDTprIdOUFerQVAX1yCoy0rE3wNB3UicoK6bTFCX8qC7HjpBXa0GQV1cg6AuKxF/DwR1I3GCum4yQV3Yg+F66AR1tRoEdXENgrqsRPw9ENSNxAnquskEdSEPXOuhE9TVahDUxTUI6rIS8fdAUDcSJ6jrJhPUuT1wr4dOUFerQVAX1yCoy0rE3wNB3UicoK6bTFDn8iC0HjpBXa0GQV1cg6AuKxF/DwR1I3GCum4yQd1ws/B66AR1tRoEdXENgrqsRPw9ENSNxAnquskEdd3NUuuhE9TVahDUxTUI6rIS8fdAUDcSJ6jrJhPUmZul10MnqKvVIKiLaxDUZSXi74GgbiROUNdNJqhrbja1HjpBXa0GQV1cg6AuKxF/DwR1I3GCum4yQT1ms8usGYK6Wg2CurgGQV1WIv4eCOpG4gR13WSCetRmlwozBHW1GgR1cQ2CuqxE/D0Q1I3ECeq6yQT11nAZfM5thqCuVoOgLq5BUJeViL8HgrqROEFdN5mgDqD9M3SCurgJgro6Dwo0COqyEvH3QFA3Eieo6yYT1DWK4gjq4iYI6uo8KNAgqMtKxN8DQd1InKCum5ziUNeucieoi5sgqKvzoECDoC4rEX8PBHUjcYK6bnIKQ91llRmCuloNgrq4BkFdViL+HgjqRuIEdd3kFIW6y0ozBHW1GgR1cQ2CuqxE/D0Q1I3ECeq6ySkIdZf+x+bNENTVahDUxTUI6rIS8fdAUDcSJ6jrJqcY1F36H6sxQ1BXq0FQF9cgqMtKxN8DQd1InKCum5xCUNcoiiOot2YS1A1SCeqSHfLLOgCoBHXx9gR1OQ2CukGygSxjLneCemsmQd0glaAu2SG/rAOASlAXb09Ql9MgqBsk68jqLM5CUG/NJKgbpBLUJTvkl3UAUAnq4u0J6nIaBHWDZEZ7g9XWCOqtmQR1g1SCumSH/LIOACpBXbw9QV1Og6BukKyxiWP5VIJ6ayZB3SCVoC7ZIb+sA4BKUBdvT1CX0yCoGyS328S5HjpBvTWToG6QSlCX7JBf1gFAJaiLtyeoy2kQ1A2SIzZxAt06MwR1tRoEdXENgrqsRPw9ENSNxAnquslJBnWX3SeGoK7OA0FdnQZBXVYi/h4I6kbiBHXd5CSCukuJkAINgrpaDYK6uAZBXVYi/h4I6kbiBHXd5CSBukvnM9vNENTVahDUxTUI6rIS8fdAUDcSJ6jrJicB1F06n9luBiCoq9YgqItrENRlJeLvgaBuJE5Q101OcKjHFsUR1KVECOpGqQR1yQ75ZR0AVIK6eHuCupwGQT02WbvKnaAuJUJQN0olqEt2yC/rAKAS1MXbE9TlNAjq0ckuyw6IAg2CuloNgrq4BkFdViL+HgjqRuIEdd3kBIS6K5xPUDfOJair8kBQl+6QX9YBQCWoi7cnqMtpENTD0XrLnaDOk0tQV+WBoC7dIb+sA4BKUBdvT1CX0yCot3uGTlDnySWoq/JAUJfukF/WAUAlqIu3J6jLaaQ61DvE5jchDWnaQhqb2b2q12hqAtLs9MDM5RfR9ixgQoEH9qFgnGtuDWv2Q2yXhb5UUhpFfTLhyQ7/9vVku1DctyNXV+VbDrf+d2X1UfhrjvJ0184a/5eefdyE/nDUt0cY6mlx9sDSELss2XcsLTufTHH+ayb7mAkl8xoTvNRYxDAF+2E1w9LOumSTJvOZF3qh75E1GmLfZQUemLn8ItqeBUwo8MA+FGY1rNkPsV0WvMBFpPvyO8Cbl4GSE7PgcbtQ3DsTbrcLRb0zxTQ5Y9O3YdCXbzmMQKgRFTvrUbGjHoFQo45fge+aAg1L2gPmoK7IA0tD7LJi335Ydj6Z4vzXTLYDoWRTHtgKFjFMwX5YxTAm0MP5BHXjXIK6Kg92QL2oTyaK+3Rs/f/BJ3YybGNX+GuOtsK9/NvDsZB3AgQI6up8OOF8MsUJ6rrJDoW6LtDD+QR141yCuioPqqFe1CcTpSdmoWRgJ5ScmAV3tsACgw6IbTvrUb7lMMq/PRwe0dfxP4gjqMtpENQNeiSoq2kP9QwzBHo4n6BunEtQV+XBDNQ92S4MO82DYadlJyTAjWLTt4ex7qs6rPsy1PZMXicI6nIaBHWDHgnqatpDLcO4gB7OJ6gb5xLUVXkQgbqvoAOGnerGqLM7W/bc24mxbWc9Vq0NGsKdoC6nQVA36JGgrqY91DGMG+jhfIK6cS5BXZUHPah7sl0YfXYORp3VGUV9UgfirNi2sx7Lyg5h/ZchzeI6grqcBkHdoEeCupr2UMOwtLMu3tTkiAOiQIOgrlbDiVAfdpobY87OwdBT3fzaKRZlawMoWxNE+beHo7YT1OU0COoGPRLU1bSHeYaFgS5ohqDOk0tQV+XBl5+B0Wd1xuizc+DNi5k6gYIRLaP2sjWB1m0EdTkNgrpBjwR1Ne1hjmFtQBc0Q1DnySWom/FQ3Kcjxo/tilFn5fC3p4gJf81RlK0N4r1VBxEINRLUJTUI6gY9EtTVtIc8w6KBLmiGoM6TS1AX9VAyKAuTx3dHyYlZ/H1SGEawrhHvrTqE91YdRJA1iY0DgEpQF29PUJfTSDaoxwJd0AxBnSeXoM7joWRgFiZPIJBbHS1gX948Yo8JBwCVoC7enqAup5FMUE876+LyJrNmCOo8uQR11kZffgZuvj4Pw06jQjc7I1jXiAVv7o96xt4aDgAqQV28PUFdTiNZoN4MdPNmCOo8uQT1yI2ebBcmT+iOy8d25dejUB7+mqN4+pW9MVXxBHV9DYK6QY8EdTXtwX/qIoBu3gxBnSeXoA4Aw07zYNYMryNncvPXHIW/+ii27jgSXjxlRz0CwUYgDSjfUtcuW/84lDTPFd+ySpsn24WiPpko6p3puH1f/1UIC97cHz1JjQOASlAXb09Ql9NIdKi3A7p5MwR1ntzUhbovPwP3zvA65jl5eDGUI6jYXo+tO+o1gN0uTJ6PyPPZAveSE7NaIR/v1/KCdY1YsvwA3lt1sG2jA4BKUBdvT1CX00hkqGsA3bwZgjpPbupBffy4rpg8ITeuI9OKnfVY90UQ5ZvrUNE8Ahf8UimFensNb14HlJzYqfV/8QL8tp31mPvKXlTsrG+2Fn+gEtTF2xPU5TQSFeoMoJs3Q1DnyU0NqHvcLtw7wxeXordgqBHrvgi2QjwQajQNZHa6GqhHRlGfTAw7NRvDTs1GYRzmqV/y/gEsWV7bbC3+QCWoi7cnqMtpJCLUdYBu3gxBnSc3uaFeMjALj97d09ZReTDUiFWfHcLaL4LYtJlxCz2BoN4S3rwOGH2WB6NGeGwduW/bWY+HnqsOP1t3AFAJ6uLtCepyGokGdQOgmzdDUOfJTU6oT56Qi+sndOfXNREtI/G1zaPxaF+MSECot0TJiZ0wakQY7nZE1CtuDgAqQV28PUFdTiORoM4BdPNmCOo8uckDdY/bhdl39UTJQOsL3yp2HMGyFQew7otAxCQpGueZJZDAUAfChXWXj+ls26j9o7UBLHhzPwJ13Is0agdBXZ0PgrpBpA7UOYFu3gxBnSc38aFe3LcjHr37OMvhUvbZISz7sBZbdx7hNpesUG+JUWd5cP1lXS0/9q0Fc7sazAkR1NX5IKgbRGpAXQDo5s0Q1HlyExfqw0/3YNYMn2XPy4OhRixbUYtVqw+hsjoCJgL7kexQR1r4dvz1l3XF4AGd+NsJRrCuEXNf2Yv1Xxm85mcUBHV1PgjqBpH8UE8766flQuuhE9QVekgiqI85uzPuneHjbyMQLSBf9mGt9tzjzR54P0gFqAPAsFOzMeOa7paO2Je8fwBL3j9gToSgrs4HQd0gkhzqZ/20XHg9dIK6Qg9JAPWZk/Mxflw3/v4EouyzQ1i8dF/0iJwVBHXN1FEjPLj5mu6W3Tn5aG0Ac1/dZ06EoK7OB0HdIJIX6m1At9kMQZ0n1/lQn3WzD6PP7szfD2eUb6nD4qV7Ub65ztBDVBDUNVM92S5cProzrrvMmnnzt+2sx91PVrHvoPAEQV2dD4K6QSQn1KOBbrMZgjpPrnOhbgXMg6FGLF66F8tW1HJ50AyCOjPVm9cB9/4sz5Ln69t21uOh52ui54IXDYK6Oh8EdYNIPqjHAt1mMwR1nlznQd0KmJdvrsNTC/zh2+s2/jhJNagD1t2GD9Y14u4nqtqmjJUJgro6HwR1g0guqGsD3WYzBHWeXOdAXTXMW0flH7YblRPUw5kWQd2T7cI9P8vD0FOy+XU4gqBurEFQN+iRoC7VPu2sn25ssgqGjjggCjQI6m0x6+YeSmFeseMInlrgx9btjPfJCerhTIugDlgzWieoG2sQ1A16JKgLt2/+C2a8ii40GZRGskD7Jqs8KNBostsDM5dfRNuz0AmJCdUj87LVB3Hn7P+xYc7wYXY/WB+IHXbBmdJMarC/g+aPRdmaAH7+q93YZga+7cKd5cLT9xegyMyCMmJ/eAwJkxoKPLA0xC4r9u0H+6um4lgI9CiEFHP8UXHdtoxhAu0jfpLH3wxBnSc3PlCfObkAo8/uwt/WIJ5aUIk5C/wIBDmqognq4UwLoe6vOYqf/2o3lkeug24yCOrGGgR1gx4J6kLt291jI6jrJacq1MeM7KLsPfNgqBF3zv4fVq4+yD7XDB+cGwXaa3+QqlAHgBff3IeHn6tC0MzrZxFBUDfWIKgb9EhQ526v8dCMoK6XnGpQH366R9kMcP6aBtwxexc2bg5FuCCoi2pYDfV1X4aU3oInqBtrENQNeiSoc7V3CX29COrhLSkC9eK+HTFrZg/uPvSiYscR3HTvDs3n5QR1cQ2roe6vOYq7Hq/E+q9C7CSBaIG6qWloCerqfBDUDSIxoe5if05Q10tOdqh73C4883BvJZXPFTuO4I5HdoWflzMPBUFdVMNqqAdCjXjo2Splz9XdWS48clsePGa+UwR1dT4I6gaReFB36X9OUNdLTmaoq4J5+ea6Npizu2veTFAX1bAa6kD4ufrcV2r49XSisHcmnr6vwJwIQV2dD4K6QSQW1F0Gn7N7JaiHtyQh1GdOKUBRn44CprRj1eqDsTCP7a7dZoK6qIYdUC9bE1AK9Xtu7G5OhKCuzgdB3SASB+oxQzCCurhGMkFdVUV7+eY6zHmx0sAEazNBXVTDLqhP/9VuJRXwFwz34PJROeZECOrqfBDUDSIxoK55T5WgLq6RDFAv7tsJM6eYvB2K8DPzXz/9A6cJ1maCuqiGHVCv2FmPux6vVAL16Vd3w9BTssyJENTV+SCoG4Tzoe4S0yeo6yUnOtRnzexh+rl5uABuJwLBY/yNCOrKNBIN6vfclAtvbro5EYK6Oh8EdYNwNtRdekIEdXGNRIX6zCle08/N/dUNzTBvudCbhwhBXVwjkaDuznLhkdvzbQURWyL+HgjqRuIEdb1kl85nOpsJ6nrJiQb10kHZpp+bB0ON+PXTP2gUwBHUhT0o0EgkqBf2zsSMa7oT1A00COoGPRLU2z1DJ6gr00gUqHvc6bhPweQxv577A7Z+z1pkhaAu7EGBhl1Qf/HNffx6jLhsVA6GnppNUDfQIKgb9JjiUI99YEpQV6aRCFCfMikP3vwMgU5iY/7iKmz8JiTtgTeVoC6ukUivtN1zU2540hkHAJWgLt6eoC6noZJhLpEdIqiLazgZ6iputa9afQDL/rZf2gMzCOrKNOyC+pLltfx6GuHOcuHh2/Ob+4s/UAnq4u0J6nIaqhjGXg+doK5Mw4lQV3GrvWLHEcxfVCXtwTAI6so07ID6G8trUbY2wK+nEYMHdMLlozs39xd/oBLUxdsT1OU0VDBMfz10groyDadBfcKF3Uzdag+GGjFn/h799cwJ6uo8KNCwA+oL/rDP9Cpt113WpW0RFwcAlaAu3p6gLqdhlmHG66ET1JVpOAXqvvwOmDwxT8RMTMxfVKW5chqvB4K6hAcFGlZDPRBqxIPPmltP3Z3lwj035Ub0F3+gEtTF2xPU5TTMMIxvPXSCujINJ0D9vlt6ipiIiXX/DmDlpwLPSwnq6jwo0LAa6v6ao3joOcajGM4YPKATRo3wRPQXf6AS1MXbE9TlNGQZxpgWjKCum5zAUC8dlI2SgdkiBqLCX92AOS/uETdBUFfnQYGG1VAv33LYdJHcjGu6RS+16gCgEtTF2xPU5TRkGKYzzydBXTc5QaF+30xzo/M5L+5pN60rQV3vg1SG+hvLa7Hp28P8Wu3CneXCjGvavYXhAKAS1MXbE9TlNEQZZjBxN0FdNznBoD5mZBdThXDLPtyPDV+HzJkgqKvzoEDDaqg/9XKNqefpFwz3oGRAp3b9xR+oBHXx9gR1OQ0RhnGsxEFQ101OEKh73Om4ZapPpLOoCIYaseid8OQh2p4J6nofpCrU/TVHTc8kd91lXTT6iz9QCeri7Qnqchq8DOvAbyjNcBN7s1CyaQ/arZuQZoUHBRpNTUCaxR4mXNjd1EpqT86PvtWu7VnohDBSzWswzzW3hjX7IbbLQl8q0xrs76D5Y1G2JoBhp2Zj6ClytRstBXJla9q94y72hxMbBu092S4U9Wbf0aqsOQZ/zVGkWejBjIbYZcnaYxmVCtbfgYpjoSXOf81kHzNz/FHBDh6GcQKd0TNBXZmGlVD3uNMx4aLuvOIxUb45hLX/OhTbHUHdIJWg3hJzX67BH353vPSPyusu7RILdEAJiDzudAwe0BFFvTNRMqAjPNkuFPbifzQVrGtExc4GVOxswLadDajYVY+KnQ1CHgjqijwwxVMD6gJAZ/RMUFemYRXUTY/OX9jD/IygbpRKUAfC76e/+OY+3HOT3PwH3rwOuO6yrtqV8xIQKOqdiVHD3Sg5sSMKe2VKeWoJd5YLg0/oiMEntC0/HKxrxKZvj2D9V4exfkMdAkZ1BAR1dR6Y4skP9bQRF25oErlehEOjAUNDe7NQsmkP2q0t8qBAQ+y7rO/B407H2wuKpYG++N2a1mfnui40bQidENEPuFO5oc7UsGY/xHZZ8I/UpAb7O2juWPz2lz4Mbl/kxhnBukZce+cP7CI7gz8cb14HXD4qB0NPzYI3V3AsYzL+saEOZetCWP9VnX6iWZDpaIhdVkz6EGjP/qqpOBYCPQohxRx/VLBD67oW/lYLDgJopG6Q7KCR+phzukjDPBhqxNL2C6+wXNBI3SCVRupAuOr9D787nq99u3BnuXD56M54Y3mt0MiuZEAnXHdpFwwe0FGjkT1x5pAsnDkkC1V7j6FsbRDLPwpoj9pppK7OA1M8eUfq6X1+NP3h1n/RSF2dBwUaKkbqD955HDzudBGh1njlzSps/CbI1NZ0QSN1g9TUHqkHQ41IA1ByotwovbhPJv76cQD1DTo3FptNlwzohHtuzMV1l0bMDR/ncGe7MHhAR1x0jhuZGWnYtqsB9Q1NsYk0UlfngSmefCP16KGbxvdKPzQaMDS0Nwslm/ag3doiDwo0zL7SNuYc+ffO/dUNWPq3lteN+I3QK21GqRrn2SoPCjSseKXtvVUHpd9Nbxml6zko6pWBp+/zYu59BXEdleuFO8uFay/pjDfm+nDZBZ7YBHqlTZ0Hpjj/dZvtwBx/VLAj8roWey+WoK7OgwINM1A3U9m+6J1qXW1dFwR1g9TUhnpLgZxsXD46p3VK2EgHnmwXZlzTHQse7eFYkLcPd5YL06/qigWPeGNfkSOoq/PAFE8uqLvMm2E0IKgr05CBeumgbBT1lbut6a9uwMpPD3B5Y7ogqBukpjbUy9YE4K85yt82IiJH6S2yJQM6YcGjPXDZqBwpzXhHYa8MvPiwF9dd0jn6A4K6Og9M8eSBukuNGTENgrq4hijUx5zbVaRBVCx6p1oJUAnqRqmpDfW5rxi/PcGKy0e3gfv6y7pi7v1exzwnNxPXXtIZCx5pty8EdXUemOLJAfXIpYxMmhHTIKiLa/B+lz3udIweqTFdJkf4qxuw8pMDLAtMb8xMgrpBaupCvXzLYenFW1pG6b+934vrLpX7rjs1CntlYMEj7Z7/E9TVeWCKJz7U2z1DJ6iHUxMb6mPOkb/AtRXCMS0YfRCbSVA3SE1dqL9hYonVGVd3k36n3enhznJh7r35GDXM3baRoK7OA1M8saGu8YIyQT2cmrhQH3OO3O32YKixbXSub8Hog9hMgrpBampC3cwoPRXirhu6RT9XJ6ir88AUT1yoM2YcIaiHUxMP6r6CDOliuJWf1LZb61zXgtEHsZkEdYPU1IS6mVF6KsS1l3TG3TdEvLFCUFfngSmemFDXqSJpgrmZcMQ0tDcLJZv2oN06sWaUm3BRLq9gTMTcbje2YPRBbKaGZ8ETQjPKqfKgQEPFjHLlmw9j2856FPY2N6e6yti2qx4VOxpQWXMUwVBj1GIr7uw0FPUJP98uGdAR3rx0y6eSvWBYNgKhRrz0VvOPH5pRTp0Hpjj/dZt9zMxyVIwdBt9Cgno4NXGgPvzHcq/tlG8OobKKY4UogrqBBkFdRmPZyoO452dyC7eoCP/eo1j/ZR3Wf1WHco5HAOu/qgPS0rCk+d/evA4oGdARQ0/JwtAhWZZ4vOwCD7btbEDZumB4A0FdnQemeGJBneNnJUE9nOp8qBf36yQ9M9zKjwVuexLUDTQI6qIaZWsCuP7yrra+ehasa8T6L+vwXtkhVOysFxeI2Gl/zVGUrT2KsrVBeLJdGHpKFi4flSO0DCtP3HVDNwTqGtsWeSGoq/PAFE8cqKf3+dHPH+YT1BATPnb8GtqbhZJNe9BubZEHBRrXXJ6HgT8SHx0EQ42Y/bsfxD0wc/lFaO53o9TYD8R2WfCP1KSGqbnf04DTB1szuo2MYF0j/vS3g3j8xRp8+nkQ+w/KTUPbGu12ur6hCRU7G/DXTwLY9N8j8OV3UPpD5fSTO+GLrw9j/4EI3zT3uzoPTHH+6zbbgVmO6nsQWIariWuTKg3tzULJpj1ot7bIgwKN0kHZIgKtsfZfh+Q8MHP5RahQzig19gOxXRb8IzWpYaZQruyzgPQc77zx0doArrvzByxZXtu22pmFxV3l3x7B3U9W4enX9iFYp2bf3Fku3H1D99bpb408cAcVyhmI81+32Q7MclTfg8vsAiAEdYUeTGiYqm5vf7udoB6xmaAuqiEL9UCoEeu+DHH3IxL+mqO4+wk/nnplL3vZUjNh0L5sbRDX3b0HH7U8/zYZhb0ycPcN3YQ8cAVB3UDc2VB3AaL7TlAPpzoL6rLFcP7qBmz8RuMiSlCP2ExQF9WQhfp7qw5y98EbZWsDmP7rPa3FbpZBwKB9INSIua/uUzZaP3NIFoae0u4RBUFdnQemuHOh3nrPhqAu3t5JUB9ykts4TSPCt9sVeCCoG2gQ1Hk0KnbUY5tMgRoj5r66F3M1RuXxgjoQHq3f/WQV/HvlFqeJjLtv6BZ967X398wAACAASURBVJ3Tg2EQ1A3EnQn1qG8CQV28vVOgXnqS3PPzjV+33AIkqBulEtTFNWSgvmyl+VF6sK4RDz9fjbI1AWZOPKFesbMBMx70Y9sujldFdSL8PL1b7AcEdXUemOLOg3pMURxBXbx9vKFe3K8T3NnpIp0BCFe3RxXEEdQNUwnq4hqiUF//ZchUcVww1Ii7HvdzPY+PJ9QDoUbc/WSVaaifOSRLe/13gro6D0xxZ0Fds8qdoC7ePp5QLx0kd7u9bXRu3gNfLkFdlYdkhrrZ4ri7Hq9ExY4j3PnJAPV7IqeGFfRgGAR1A3HnQN3FRCRBXbh9vKBu7vm5Gg/8uQR1VR6SGerrJYE+95WatklinAABTqjPfXWvqUK5gtz06JXZBD0YBkHdQNwZUHfptSKoi7ePB9Sln59/o/cKDUHdKJWgLq7BC/V1X4bgrxErGluyvDb2mbkTIMD5TP3h52tMdTP96i6xBXICHgyDoG4gHn+oR85MoC1PUBdubyfUfQUZUs/P/dUNHHO3E9SNUgnq4hq8UJ/7Mj/gNn17mL1qmxMgwNG+/NsjWPKBfEGgO8uFyy7wmPJgGAR1A/H4Qr39+w7a8gR14fZ2Qb24n9xkMvqjczEPshIEdXUekhHq5VsOc0F92856PPRslWyHOg7kNWTbL3n/gKnn6aOGGzx+I6ir88AUjx/UNe7PENRlPGi3th7qxX3l5r7+bpvxilK8HsxIENTVeUhGqJetCWD6r3Zj/Vexz9T9NUcx9+Ua/PxXu7Vnf+PvUMeBvIZs+7mv7pWW132WLuDBMAjqBuLxgTpjxYAmaK551iQy772GhrasEg2GY5Fk0x60W1u7Slt/6RF6yPz51NksIiEiou1Z6ITQKm2qPCjQYH8H2zQqdtTjoWfCI/CSE8Pf98rqo9HP2Lm/g/xfevZxE/rDEW5fsbMBSz44iOsu6Swlf92lnduWWJX0wBUMDbFLm7XHMioVyb9Km87iLDRSl/Gg3dq6kbrsLfet3zdPg6nwboEZCRqpq/OQjCP1lijfchjlWw7HFswJfQcdMLIzaL+87JD0THIFuena76ULeuAKGqkbiNs7UjdYbY2gLuNBu7U1HmTWP6/YHn27naCuVoOgLq4hM6OcmVRHQECnfSDUiCXvyxfIGd525/DAHQR1A3H7oM6xfCpBXcaDdmu1HmRH5999H/v8nKCuVoOgLq5BUI+OsrVB6VH60FM6sV9hE/DAHQR1A3F7oM57xrW3EtSF26uEusct/roagObX1TQu9gR1pRoEdXENgnp0yI7S3VkuDB0iUDBLUFfngSluPdQ5gc7ugqAu3l4V1KWfn2+vY3ZIUFerQVAX1yCot0XZ2qD0DHJDTxG8PhDU1XlgilsLdZdpkIGgLtNeBdQ9boHfYxERCEZeIAjqqjwQ1NVpENTb4r0y9opxenHmkCz+2+4GHlRoENQNelQAdZdBK24zBHXx9mah7ivI5O8sImIXZSGoq/JAUFenQVAPR9la3kmgYoOr2p3DgyoNgrpBjyah7tL5TCcI6jIetFvLe+hRIF7hruckZgtBXakGQV1cg6AenkBn/YY6RrJ+CD1H1/GgUoOgbtCjCai7dD4zCIK6jAft1io88EX7V9aMOiSoq9UgqItrENSB9V/JAb1EZoTO8KBSg6Bu0KMk1GMfsBDUJX3YD3WZKvdA8Jihk5gtBHWlGgR1cY1Uh7os0Aty0+HNY0wIKuhBtQZB3aBHCahrV0wQ1CV92Av1or5yVe48TmK2ENSVahDUxTVSGeqBUKP0bffBJ8jV2rT3YIUGQd2gR0Gos0sgCeqSPuwfqVsTBHVVHgjq6jRSGeqbvj0i1bxkQEc02QhDUQ2CukGPAkjRf6eBoC7pw7lQ3/B17KpVek5ithDUlWoQ1MU1UhXq5d+KrJDYFkW9M5slCOqi7RMN6sYvKRLUJX04F+pm94OgrlaDoC6ukYpQr9hRLzXJTGGvtrdhCOri7RMJ6nyzDhDUJX0Q1HU7I6hHbCaoi2qkItTLt8jfdm+zQFAXbZ8oUOefRoigLumDoK7bGUE9YjNBXVQj1aBesbNeql3Lbfc2CwR10faJAHWXkBmCuqQPi6CuIgjq4iYI6uo8KNBIJajLFsa5NaaAJaiLt3c61F3CZgjqkj4I6rqdEdQjNhPURTVSBeqyI3TWBDMEdfH2ToZ6xNSvBHX9zckB9SEnZbPEBYKgrsoDQV2dRipAPRBqlCqM01ukhaAu3t6pUG839StBXX9zckDdqv0gqKvVIKiLa6QC1Ct2NAjlA+FK91HD3cxZ4wjq4u2dCPXYs9vUBKSl8XfKmcpKFulOU0PIg5gGw7FIsmkP2q2bkIY0VGw/bGK2OGv2w/T5FPXAzOUX0fYsdEJMe2AfivC5ltewZj/Edlnwj9SkBvs7qOJYCHXILyug4a85CkB8jva7b+gebr/3KDZ9ewTl3x7B+q/qEAg1NltoQhr/H29siP3xC2mIXZZM+rD5fIqJ618zWT/XCOq6m+MLdV9BJkb8pDN8pldbI6i3ZhLUDVIJ6pId8styalTWHOU0pR3e3A64YFgHXDDMDdwAbPpvGOzrvqqDv+YoQV2wvZOgzp61n6BusNleqHvc6Rjxk84Yc143lA5y83YQEyUxbQnqrZkEdYNUgrpkh/yyHBrBkPgzdL0YfEJHDD6hI6Zf1RXbdjWgbG0QH60LtY7chYOgrs4DU1y7R/1leAjqBputh7qvIBNTryzAiDM6w50tvrqatAedzbwaBHW1GgR1cY1khHrFTvFn6LxR2CsD06/qiulXdcU/NtShbF1IbqU3gro6D0zx2I3G6+oR1A02WwPD0kFuTL3aa2o0zgqPO11jGVWCemsmQd0glaAu2SG/rAoImIwzh2ThzCFZqNp7DGVrg1j+UUBs1E5QV+eBKR69kW+hXIK6wWZ1MBx7XjdMvdILr+nn4+wo7tcJG78OMj3wbtYOgroqDwR1dRoEdfkoyE3HtZd0xrWXdMZH60JY8sHB5sI8jiCoq/PAFG/byAd0UTMEdWEfbSA3uXax6SCot2YS1A1SCeqSHfLLamhIP9tWEBcMy8YFw7LFwE5QV+eBKR7e2MGyA0JQ5/JRepIHU6/yovQk9bfWWRF7u719ENRbMwnqBqkEdckO+WXbaVTsDK+65s7iX4pDdQiDnaCuzgNTvAlpw8Z80QRWx6wQMSMmbLo7TQ3hY8evwXBsmOwryMStN/bE8J90FvRmLoKhY7jwmi2c2UI7za1h+nyKemDm8otoe1bxd2BegwX14r4dMfrszijqE35n2V/dgI1b6rBq9UHlHjTPs5CG4B+pSQ32d9Cia5vAl55tre2T6y7tgusu7SJgwNr4aF0IL71Va3z3QMUjBIaGZQwz2Z7nfMr7aPfPFqDrdmzWDEE9avPUq7yYeHGehVXr7Fj0dhUW/alKoAVBvTUzQaDuy8/AvTO8KBmYpZnrrzmKxUv3tgM7QV3KRxyh/tKjPhT2ivcjurYI1jVieVkASz5o/4OxXRDU1XloJx4FdN2OzZohqKO4MAv3394Lxf1kZ3czFxXbD+P2B74P33K3G6gEdWUeWKk57nTMvD4fo87mu+tTseMI5r9RjfLNLa8lEdSlfMQJ6p5sF+6+MRdDT9H+4RavqNp7DHNf26e/MhxBXZ2HCPEYoOt2bNZMCkN96lVeTLnKK9q5soiCeUsQ1KVEnAZ1j9uF8WO7YcK4bprLZBpF+ZY6PLXAj8rqBmkPRh8Q1Lk65JeN0CgZ0AmjhrtR1CfDUSP25R8F8IcPDrJvwxPU1XloFtcEum7HZs2kGNR9BZl47IF+cRuVb91+GEv/XIOVH9dqJxDUpUScAvUxZ3fG5Im58OaZf82x7LODmL+4GoGQ5iWB6YH3A4I6V4f8sgyNkgGdUNQ7A4MHdEJRnwx4c/lfZlIdhqN1gro6DwDSho3+d5PtByRFoD7ijC64/xe9bH1WHgwdw5p/HsTGr4NY8/nBqBE5syKaoC4lEk+olw7Mxswp+a0Fb6oiGGrEshW1WPYhR4FTSxDUpVLtgoA3rwNKBnREyYBOGHpqVlyq45d/FMBLb7EGFQR1VR7CQNcRIqjLaUy7ymfbLfYWiK/9/CDWfK5fkEJQ58l1LtR9+RmYdbOPWfCmKsKFc/s0KuIZQVCXSo0HBEoGdMLQU7Iw9NQsW0fv23Y14OF5e7VfcSOoK/HQBnQdIYI6v4bHnY5f/qIXhv/E+ldK1n5+ECs/3o81/zwoeL0hqBvnOgvqHrcLMycXYDRnwZuq8NccxZwF/ojCOZ0gqEulxhMCRb0zMWq4G6NGuG0ZuQfrGvH0a/u154cnqJv2EA10HSGCurGGx52O5x8vQnE/60ZPwdAxvPvnGqz4ey0qq+oNbbGCoM6T6wyoT56YK13wpirKt9ThxcU12LpDp3IZIKhLpsZ7ZAcAQ0/NxuWjcjD4BLWPcbTipbdqsfyjQOwHBHVTHmKBriNEUGc36F+Yhft/0csymPur6rHwbT9W/H0/0wNrEysI6jy58YP6mJFdMHlCLrz51s3rLxplnx3C4qX7miviGUFQl0p1AtSRlgZvXgdcf2lnDD3F2uftH60L4enX9ml6MB0pCnVtoOsIEdRjG/QvzMLzjxfB7VZf/KYN8lgPRptYQVDnybUX6qUDszF5Yi5KBmbzt7MxuArnCOpSqU6BOhB+z/2yUTm4fJTHMrD/Y0Mdnn5tf+z3iKAup8EEuo4QQb0t+hdmWwLzYOgYFr7lx7t/ruHIJqgr8xBHqPvyMzBzSgGGne7h7iueEQw1Yv4bNezCOYK6VKqToA5YD/Ztuxpwz5xqgjrMn099oOsIEdRbRubFymG+9C81WPhHPwIho0VUIoOgrsyDzVD3uF2YPDEP48d149Z3UugWzhHUpVKdBnUgDPYZV3fFBcPULyRFUI9INaFhDHQdoVSGusedjtefPwE+hcudbv3+MOa9uhsb/xNRLGLjHQeCOk+uWqhPnpiHCRfGt+BNVTAL5wjqUqlOhDoAFPXOwIyruykvniOoR6RKavABXUcoFaHucafj+SeKlRbALXrLj4Vv+bmtsYOgrsyDhVAfM7JLeIY3BxW8qQrNwjmCulSqU6EOAJePysF1l3ZWeht+264GzHhI4zpIUOfSSO9d/LOHzZpJNag/PKsvSk9S85wzGDqGex7+Hiv/3lLtaRFQCepyHhRDvXRQNmbN7IHx47rBY0ERZfuo2HEEv3muEvOXVKF71w4o7mv9K0lFfTpizNmdkZmZhortR1Df0DxmIKhLpToV6lsq6vHp53Uo7pMJb56aCWq6dUmHL68D1m+g99QB8fPJP0I3ElKgoUDYdHdGMLztpuMw4eJ8EUFmbPw6gAce2x69YArLg85m7mSCupwHBRfwHgUZmDnFa1vBm7+6AYuX7sXKTyMK1tKaZ5qbYf1Mcy0RUzhHUJdKdSrUW+LyUTmYflVXc/oRwZwqlqCuqyEOdB0zyQ71EWd0wWMP9BMRYsbKj/fh8Wd3sXpjbiWoN29JEKh73OmYMsm+grdgqBFLP9yPZR/uRyCo8UpZs93SgdmYOVn9XPCsiCqcI6hLpTod6kW9M/D0fQXKbsH/9rX9KFsXFPLAHUkKdTmg65hJVqj7vJlY+PwJSiran3huF1b8PXpCBYK6uIbToT7hwu6YMinPtoK3VasPYv7iKm2QR0aEXZWrtfFEa+HcTtaMcwR1yQ75ZS0EkSfbhafvK0BhLzXfp5sf9qNip8YkRgR1TQ15oOuYSUaoP/9ksZLn5k88uwsrPtaYHQlMx0bWOIKgrswDxwV8+I9zcMuUAtsK3so3hzDnxUpUVmssesGKiP0wu566TJR9dgiLl7FmnCOoS3bIL2sxiO65sbuS19uq9h7DjIf82hMYEdRjNMSK4gTMJBPUp17tw9jzuos00ownno0YmQuxhaCul+wUqJcOcuO+W3rgqktzbSx424PFS/dGXPDE/5bqG5pQvrkOf/m/WvsL5zLSULEjonCuvTndLXofENQNZS0E0fqv6uDL74Ci3uZe63Vnu9C7Rwd8+i/G4kAE9SiNtGGj/sVcD92smWSAev/CLLz2/ACRDjUjCuatJrRzCeriGvGEui8/A1Mm5WP0SOtX2AOaC80WVWHl6gPG5oxCI9WXn4GZkwsw7DT1E4hoRWvh3GftZ5wjqEt2yC+bICN15vN0Dg9ckSRQDwPdQjOJDvXnn+xv+lb7E8/ubIY5P1AJ6uIadkPd40nHhAu7Y/LEPJGOpSMYasTSv+3Hsg/3tT0ntxAipQOzMXlCrm0V8f6ao5jzUvsZ5wjqkh3yyyYA1IN1jZjxUJX2WuocHrgiCaCe3rvopoetNpOoUB97fndMvLhApJOYmPfqD/hgxV59HwR1ZRp2QX3CRd3xm3t74fRSe0axq1YfwKPP7sG6fwdib09bBJHK6gaUrT4Ef/VRFPfrBI/Fz9c92S6MPqszSgdmoWJHPfYdaHmdk6Au2SG/rMNvv2dmpMGXl86+9W7ggTsSHOrRQLfQTKJB3eNOx29nFyMzU/4itvLv+/D7xXv4fBDUlWlYCfXhP87BU7/qjXOGhZ//Wh3lm0N4cO4P+MtHB9grmwGWjtQrdtRj2Ye1SEMaivt2tHy/ffkZ+On5XdAjPwMVO+qb1zQgqEt2yC/rcKj36pGBbbsasGuPTvFnikO97Za7DWYSCepTr+6BqVf7RISjYuv3dZh223/FfBDUlWmohnrpoGxMuSLftiVN/dUNmPPiHmz8RmdE0j4shEjLufa4XZg8IReXj1U3iYhRvLFsH5atqEUgpHGpYjUiqMvJWgyil2b7TL3Splv1zumBKxIU6tpAt9BMIkA9/M75AOl3zoPBY5h6239RWVUv7oOgrkxDBdR93ngUvPmx8tPIgjcVfwfqoA6ER9E3T863tXBu8bJ9WLYithCQoM7VIb+sxe+pL3m6h6nJZ/7wwUEs+YCxZC+HB+5IQKizgW6hGadD/Zd39MEYE6+pPfDY91jzT1YFMocPgroyDVmoe9zpmHBRd0y4qLst72aHC972Yenf9iOouWyu86AOACUDs2wvnJv/Rg3WfRFd8UxQ5+qQX9ZCEJUM6Ii5s+Rrk4J1jbj+nkr9UbqBB+5IMKjHPkO3yYxToe7zZuKXd/QREYmKtf88gIVvVQq2IqjrJtsM9THndMFTv+6N00vdtjwnX/XpAcx+ZjfWRhS8aXt2HtT91UexavVBWwvnzjnTg9KBWaisOQp/xGQ6BHWuDvllLbr2+2uOAWlpKBkgN99BZkYaGhqasOm/rNkGjT0IRQJBXX+EbrEZJ0L9tp8dj4mXyC2+Egwew8Rpm8OLrQgfMoK6brINUC8d5MZ9t/a0dYa3FxZWYev2w5qfJwrUI2PyhFyMH9c1DjPOHW32xQiCupyshSAy8zyde5Ru4IE7EgTqxiN0i804CeoedzoeuLOPdGX77xfvwcb/BCQ9MBoQ1JVpsL4+xf064cE7j8fkK/JtmeEtXPBWiZffrMa+Wv3pWhMN6uEZ5w6gY6YLJ/bvxN+HZBT16YjxY7siDW0zzhHUuTrkl7Xo2r+l4gguOkdujg+hUbqOB6FIAKjzA91CM06B+qXj8jH8TLnip63f1+GJZ3aa9MBoQFBXphH59fEVZOCWaT7c8bMe8BVYPyoPhhrxyptVmP3sD9j5g1HBZFskGtTrG5rw7/IQylYfgq8gA717mpv+kydKBmbh4vO7oL6hCZu3HiGo83XIL2vBtX//gUaYufVe1CcDf/s0qDFtML8H4XA41PluudtgxglQf3fhSfAVyF18br//O2z4T0C7Q4K6Og8KNHI8LQVvubbdGl78bg2W/m1f+HGMjjdWJBrUIyNehXPrv2BNFcq9kR0EdfHQaO/JdmHBbC+8uR2kJHWnhOX0IBwOhrrYCN1iM/GE+pCTczDxErnKy41fB7Dwj5GFcAT1cKrzoD7m3K6Y++s+OL3UY1vB26+f+h/W/vsQYySR/FCPV+FcycAs+NsVzrUGQV1OVvG1v76hCcFQE4aeIvdjr7hPJpZ/FDBO1PEgFQ6FuhzQLTIDxA/q067tgf6FcpOGPPHMDo13zgnq4VRnQL30JA+ee7QvxpzT1bYZ3ua8sLt5VK5u3vVEhToQXh3O7hnnRp+VA19+Bso313FOmUtQN5RVfO2v2NmAUSPcUj/03NkubPrvkXDlvAkPUuFAqMsD3QIzrZut8qCT+sAdfaWK4WJH5wYdEtTVeeDUGHNuV/xmVi/7Ct7m78HLf6jSXus7xaEOxKdw7pyhOVj/RTC2KpqgLier+NpvZpSehjSs3yAwoyLDg1znzoK6uXtfTWKP33nbC6mKeGCkjjizq/SscCv+b6/OpxodCh8yfg2hoyl2kE21b7LKA4fG8J/k4L5bjhPpSCpaZni7csZWrP3XIXYi0y//wdD+ypv/O1ChwTzX7SIQbMT8xdW45rbtMZPEWBHevA545M4esR+YPZYKNNiXMBXnVKhDflnF1/6ytUH49+q/8cGKoadI/ig0uw86GpYxzKC9+YdZSQD1EZKV7ZVV9Vjxf/sMsgjq4dT4QP3WaRoXccWx+J0aXDl9K5b+1ei70BwE9daorGrAg7/djTsf/R/Kt0iMsgSiqE8mRp+VE/sBQV1OVvG1f8n7BtO5MsKd5ZIe3Scb1F1NFu6Q2fZ2Qf2sM+QWmljLPb0rQT2cai/Uh/8kx9JJYlZ9egBXzdiKRX+qDlevC11QhT+IzUwSqKMpfBv+ztn/w1Mv+dlrXiuIoacz5p4nqMvJKrz2l60NIljHMVGMRgwdYuINiiSCuiv8/6kL9f6FWdK32//0fpVANkE9nGof1Iv7WvOaVPk3Idzx4A48OW83KqvaPScnqEdsFtdYtfogrr71e7z4RjWCPLOACUbpiVmCu0xQN5RVDHWZkL7truFBtYadUG+95Z6qUB9xptzofOv3daj01wvuMkE9nGrvSF1lVGw/jF88uB0bvwmq8UBQ19RYtqIWi5fq1afIRcu8AwR1rg75ZRVd+98rE3wFrTncWS4MPsHkBEZJAPWoZ+ipCPUhJ2s8U+OIFR+1PS8lqIu3T1SoF/XthLdf6o/hP2753hDUjVJFoV4yMAsvP9kbN18vt6aCQFcCHxDUDWUVXPv9NUexbZfG2yEcMXhAJ/MMS3CoxxTFpRrUS0+Wm0v4s3/WynTXks21SZUGQV1tePMz8OisXnh2dl+UDnKr8UBQhy8/A7978Hj87tfHo6iP3HSgokFQ5+qQX1bBtV/2tnvLFLKpDHXNKvdUgfqQwXKj88qqelT6Y+fiJqiLt7cU6hZHyaBsPDO7D+67tSd8BYypKwnqEZu1P/C4XZg1w4s35/W1bXrYyCCoc3XIL2vy2r/uy5BUu8EntP0ITFWoM19bSwWo9y+Uu3hs+M8hpguCunj7RIY6AIwe2RVvLeiPKVfkaU9eQ1CP2Nz2gcftwuQJufjjvH4YdXZnfm3TEWuOoM7VIb+siWu/v+ao9DvpkQu9pCLUdd9DT3aoF0sCfc0/Wl5XI6jLeNBundhQB4DJk/Lx9kvFmHBR99gPCeoRm5sw+uzOeHlOH1w/obttC+S0d2G8Re8DgrqhrIlr//ov5eYkGDwguto91aBu+JeUzFCXnbv9u22Rt4QI6jIetFsnPtTd2S7MnOrF2y8VRxTONQdBHaUDs/HKnD64d4YX3jy5FbbUBUFdskN+Wclrf/m3h6XaFfWOnXcilaDO9RfV1NSENLPzzTY1mZuzltG+CQLz5rbTkBmhaz8/13YhtssaGkI7J6bBcCySbNqDdusm7fnAzXqwOcKFc8ej/JsQFv2pGhu/CYlbY+byi2h/B4VOiGkPaAqvPT9rhi8uz8j1I3Y/xHZZ8LtmUoN9TVFxToU65JeVuPZv+vaIUH5LaAE9bMEkw8zyS0fDDMPaB/dP5GSDuuzz863bWLeCCOoyHrRbq4J6/KOlcG7Vpwew6E/V4YloUgjqHrcLMycXYLStz8hFg6Au2SG/rOC1PxBqhH/vUeF10vXyUwHqQg+vkun2u8cjd7sv+nY7nwu6/S7ePhluv0fG6JFd8NaCYky5Ij9cOJfkt989bhcmT8zFWy8UOhzmLUG33yU75JcVvPZX7JB7Hz2yMC7WQnLffheuRkkWqA+RfP/8O+YIXd8FQV28vRqoOysmT8prK5xLUqiPGdkZr8zpg8kTcuNU8GYQAseSoM7VIb+sgEbFzthXg3nC6DuXzFCX+mtLFqjLRKWf59kOQV3Gg3br5IN6VOHc6QJzITgc6qUDs/HKU31w7wyfpYviKAmCulSqnVCXf45uPAVsskJd+udzokN9yGCrRuj6Lgjq4u3thvqv5uyEv1rudp9ItBTOPftIH5QO4nzjwoFQ9+Vn4JmHeuF3D9kzw5u/5iieWuBH+WaTy60S1KVS7YJ6QHJxHk82by1C8kHd1HsjSVMoxxnBliUyTVZbU6GceHs1hXJ8sfbzQ1j7+SFMuCgXU6/MhztbbjU+3igZlI1nHmkunHunOnYFt/bB3Gf+g6GiUM7jaSl468LXxmQEQ41Y9mEtlq3Yj0CwUc2zeYFjKXbYBb+YJjWSsVBO9pY7zwi9zUJyFcp1MGsoUaHu84qPJFpH5wR1SR+JA3UAWPrXvVj5SS0mXJSLKVdYu1AIEC6cG/7jHCz96z4s/du+8BrrrIgj1D1uF8aP644JF3az7Rl52eqDmP9GNQJB9UuqEtTlUu2Aukylu2gkE9Q7qDCUiFD3FZhdao8hLJBMUBdvbzfUA8FjWPSnKqz8ZD+mXFGAMefILbfLG+5sFyZPysOEi7rjhYWVWPnJAXZyHKA+ZmQXTJ6Ya9sz8vLNdXhqgR+VVj8CIahLpVoNdX/1MWGgs95F1/WWJFBvO1IpCHXR2NO+II6gLukjsaAOAJVVDXhy3g9Y+Uktpl6Rj5JBWztdpgAAIABJREFUbms6ag53tguzZvbElEn5ePKF3W0T07QPm6BeOigbM6cU2LYKWsWOI5i/uBobN4e0z7UVQVCXSo3X5DOscGfJ3TVKBqhH//QhqOuG1gprBHVZHw6Guo7Gxq+DuP3rIIb/JAe3Tuth+UjVm5+BZx7pg/LNIbzwuh9bt2tMiWkh1H35mZg104eSgXLTJIuGv6YBi9/di5WrD0a4YJxrK4KgLpVqFdQrdtZjsM575aoj0aEeey+DoC7Rn4gwQV3Gg3br+EAdiEPh3MBsvPJ0P3bhnGKoe9zpmDnF3oK3pR/ux7IP92tWNxPUxTWSAeqyle5mIpGhrv1wIsmhforkOuj6/YGgLuXDQqibDQ4fjiqcUwB1d3Y6JlzYDRMutG8VtFWrD2L+4qrogjfNU0pQF9VIBqjLhDevA/w1ckuwhi0kJtT1Jr5NaqhbEgR1SR+JDXVHFc6ZgPqYkV0wZVKerQVvc16s1C54Y36tCOqiGqkIdV9uuimghy0kHtT1yweTGOqWBUFd0odFUFcRnD7aCucONBfOWfvcmVk4Jwj10kHZuGWKF0V9bSx4WxQueNMNy6CuAmQEdckO+WVVTPxi8tqfaFA3fh+AoC7RHwjqUj4SH+oAsPHrQEThnPXToGoWznHQxZefgftu6WFfwVt1AxYv3YuVnx5gmYsNHaibC4K6lA+7oW42UgzqfC/4EdQl+gNBXcqHE6CuZj/aCue6Y+qVBZY/k9YsnNPw63G7cMsUL0aPtLvgbV/Ec3KLICIUBHUpHwT1uHjggTr/G/sEdXENgrqkj+SBOpCGpX/dh5WfHMCUK/LDq6xZHDGFc6Fw4ZzHnY4JF3a3ueDtAOYvqmJUKxPUhT0o0CCoy0o4H+piU/AkC9TNBkHdYLMzoG4+1O1HIHgML7xeiaV/3Ytbp/kw7McWvGkREe0L5wBgyqR8GwveQpgzv13Bm50QEQqCupQPgnpcPOhBXXyS3CSA+obyg8ZJKj0Q1CV9qNgPs6F2PyqrGvDAk7tQepLb1sI5uyJc8FalPbOdGOG0Q8X5NwtUgrpUqp1Qr2RVuCc51OVmvU8CqCsJgrrBZoI6K7llxrmx53bFlCvsGzlbFf7q5hnePtWZex4gqKv0oEDD6VCXDd1X1pIY6vLL2KQg1DXXUCeoG2wmqOslr/i4Fis/qW1+vp5r27NtVREMNWLp3/aFZ3jjXQlNFdTNBkE9nOlgqFsWSQp1c+vSpSDUTXsgqEv6SF6oNzUBi/5UjaV/3YcpV+Rj/IXWF86piNaCt6hlXtXD0NIgqIczHQr1EivncU9CqJsfDpgsMmtSVaQmGBv/c0i4je4a6iIehOxqJ4vtskay8CHj12A4Fkk27cG6sGY/mprQWjh31YzvsO5f4t9Pu6J8cwhX3VyBJ1/Yo7Fmu4q/A5tPqmZ31uyH2C4LHgeTGuxrikXXNhXXfrOhwINphilkYAfbX+XSbJ4YI3XDNdRppG6wmUbqeskt57OyqgG/mrMLpYPcmGJD4RxvVGw/ghcW+aMK3rS/g9aMcC0NGqmHMx02UvdIPILa9O0R4yQBD3wSzhipu1rFzEaCjdS/qzCYdpIR/QsNLq40UjfYTCN1veTI87nxmyB+8eB2zHlhN/xa853bFP7qBsyZvwc33vO9ZvW69neQRup6H9BInatDFPY2GESpiiQZqbf9/EkxqB8KtL9VyBc+L8cXjKBusJmgrpfc/nyu/KQWV07/DovfqUbQxuUkg6FGLH63Bjfes92wep2gbpRKUBft0JsnV+IlvShLEkA9+n5GCkH9u22SI/QiztufBHWDzQ6GuoLzoRrqQLhw7srp32HZ3/aJiEvFqk8P4Mqbt2LRO9Uaz8m1g6BulEpQF+nQJwl05jvoEh7kJOIH9dgHFCkC9Up/vZSs5qtrkh6ic0VcENRlPAiFQ6FudeFcuOBtK56cvzsC5GYhQFDX+4Cgrt1hUR+52+1ml01NZKhr/wRKgUI52WfopSfniJWpUKGcwWahZDEPZkPB+TCrwTqfqgvnKrYfxgsLmwveTBZFUaGcUarGeeZPFfOgQCNehXJFveUmW/JXHzXPsAQtlHOxf4Al/0hd5tU1IFwYJzb4opG6/maLRuoqwqEj9ZaILJyTeb4eDDVizvzduPHu76PXU+f0xsx08EhdaJ5/GqmHM+MwUi+WLIir2FnfqmEqEnCk7gL0vkjJDXXZUfqIoV3Dsgo8aOcKCZvujqCuUtZ+qAPhwrmt3x8W6QQAsHX7Yaz8RKPgjaBu0B1BXcqHQKpMhXuwrjF6Zb8Ug3rrM/RUhPpXm+RG6Ged2bVN1qQHdq6QsOnuCOoqZeMDdeVBUDfojqAu5YMjteTETvx6EVGxQ6M2KoWgHlUUl2pQ31pRJyVTXJgFjzu9TdaEB/1cIWHT3RHUW1pb6IGgLtyeoK7QgwINO6BeMkAO6OWsSWVSBOoxVe6pBPU9/iOorJKrdj9raNeofxPU5TQI6uIaBHW1QVAX17Aa6tIj9J311jEsAaCuOa9eKkF9zfr9UhLjLsiNlZX0YJwrJGy6O4J6S2uCuo4Fow9iMwnqBqkEdSA83etg2RH6lsP6DpIc6syJclMF6rLP0UtPzkEPjVnjCOpyGtZB3VwkPdRFNJIF6szTQVAX1bAC6kNPlXsFc9vO+qiCuFSEuu7M96kA9TXra7lnwmofY8+PHaUDBHVZDYK6uAZBXTII6so0VEN9mCTQtZ6fpxrUDZeySRWoy8S4UXnMfSCoy2kQ1MU1COqSQVBXpqEK6p5sF4aeIgt07dc2UwnqXGvTJTvUP5N8ju4ryMS4CwjqqjUI6uIaKQl1FUFQV6ahAuqyMAfanp8LOUgyqHMvNpvMUF+zfr/0bfdJlxW0mND8nKAup0FQl9QwGwT1iM0EdVENs1AfP6Yzd1+Rsf6rUPSEMiIOkgjqLhEzyQ51mSguzMaQwTktJjRzCOpyGgR1SQ2zQVCP2ExQF9WQhXrJiZ2k1z9f9xXfnCLJDnWXqJlkhfo7y/3SbW+4rmekCc0cgrqcBkFdUsNsENQjNhPURTVkoD5qhMBKlu1i/RdB7txkhnrbLfcUh/p3FSFslVwjvfTknPCz9DYTmnkEdTkNgrqkhp0eCOoGGgR1PQ1vXgdpoLfebncCw+IM9ehn6E44IAo0ZA+ImVH6tMhRetiEZh5BXU7DVqgLHXaCunEuQV1XWCg1OaF+/eVdGXnGse7LiIGYExgWR6jHFsU54YAo0JA5IB+W1UhPBesryMS0awnqBHVZDwT11kyCukFqckHdzOg8GGpE2ZoAb4cMB1ofJCbUtavcnXBAFGjIQl02Jl3mRQ9vx/YmNHMJ6nIaBHWrg6Bu1B1BXVxDD+o3X9ddzEtExMDcuEMNB6wPEg/q7NfWnHBAFGiIHpB3lldKv8Lmcafjgbv7apnQzCeoy2koOJr8QVCX8+BoqJv/WyKoi2tonc+SEzuZevd82aqDYh2yUhVoWNIeYgzTfw/dCQdEgYbIAQkEjpl6lh5TINdmQjOfoC6nQVC3OgjqRqkEdXGN9ufznp/li/UfEeu/CsFfc1SsQ71UBRqWtAc/w4wnlnHCAVGgIQJ1M6N0ALhteq/YW+9hE5r5BHU5Deugbm4/COo8uQR1VR4SFerXX94N3rwOYn1HxHt6o3OtDnlSFWhY0h58DOObKc4JB0SBBi/UA4FjeP6lndL9eNzpeOKhIpYJ7c0iHRDUDTYT1NWFk6GuIgjqwh4UaBT2zsR1l8lXtm/69jDKN7Oneo0JJzDMBqhzT/3qiAOiQIMX6mYq3oHwDHK3T+/FMqG9WaQDgrrBZoK6uiCoG6US1Pk1PNkuzL7DK9ZXu3jjvVre7trCCQyzGOr8QA8r8acq0FDhQ7s5X/vH5m4z1c/ES73az9PDJrQ3i3RAUJeXtsCDdmuCunEuQV2Vh0SA+r0/zzd1q339V6HohVgI6q0hBvSwEn+qAg0VPrSbG7ffsOkQ1vxDbmnVlrhtei/0L2JUcRLUlWoQ1K2OJIG6Ag8EdTmN8WM6Y6jkeuct8eKSfbzdaYcTGGYR1MWBHlbiT1WgocKHdnPj9o89vc1UgZzHnY55T52gXSQXNqG9WaQTgrq8tAUetFs7F+qmz6eoB4K6gUZyQn30WR7MuDZXTLddLFley65sJ6hLAj2sxJ+qQEOFD+3m+u0DgWN4fckPpvpoKZLzeNJZJrQ3i3RCUI/ZzDzeBuFxs9oR1JV5UABUT7bs+XUp80BQ59Mo6pOJm03C3F9zFO+tNKhsT3GoywM9rMSfqkBDhQ/t5vrt31nux8ZNh0z1UVyYjReeOoGgLu2BX8NXkIn7f9ELE37KqF8wiNef7Y+x53Uz5YEVlkLdZCQK1EsHZePVuf1Q1Jdx18sg3ppfhPEXdjPlgSeVoB6Ooj4Z+N0DPeDONoebBX/YZ7jmOcsDO9cBDFMIdaH10M2aSWSo3/fId6ZuvQMEdauh7nGnY+pVPrzz6okYc678dJLegkzcd1svvPbsj1B6ktYc0wR1XQ8WQd2Xn4FnH+mNZx7uLQ1zAHBnuzBzcgHeml+I0kHZBHWVHtqlF/XJxO8e6Gka5uu/CmHdl/xLpKYq1IXXQzdrJlGhHggcw2NPf29KHyCoWwX1iRfn493XTsTUq8y9DhMZxf064bnHCvHcY0XwFWQaekhMqGtc7B0GdY87HffN7IG3XixCyUBzBVWR4c3PwO8e6oVnHu6F4j6sHwgEdWEPzemqYO6vOYq5v68W95GCUE/v1e+Gh1v/lZZmTk2gPTPTrAcFGmmM9jt3HUaOpwMGnSi3MlBLdO+WgfNH5mLDpkPYt7+BZUJ7s0hHIsdBTNh0d5oawqctDSPO6IKnHynEeSO6IjPD3IWDFb6CTEy8OA89vJnY+HUQ9Q2Rf3jm9iONlSxxLMee21Xjh4d++KsbsPKTWs0OTZ9Pnc08uR53Oq6+LBcP3nEcTuyfJWJGKHz5GfjpBV3hK8hAxfYjjNu65v+WmOeaW0PF37PGebbAw7DT3Jh9h880zAHg4Wf92LWn/XXSomubExhmon000G02k4hQ//yLAzilpDN8rKp1zvC403H+yO74/MuDBHUJD0NO9uCXd/TGNRMKdIrY1EZxvyxcOjYXmZkubPw68vafM6BuDujaHcYL6mNGdsGDdxyHYafnIDNDwfWAI4r7dsKYkV2QmelCxY7D7X64RZjjiRSG+vgxXXDPz/OVnLc33qtlr6hGUI+JWKDbbCYRof7ZP/bj/HNyTYMkM9OFSy/MR6W/Ht9tC7FMaG8W6SiJoO4ryMRtNx2HW286ThheKiIzw4XSkzwYd143BELHsPX7lgku4g/1sed2Mwl07Q7thHrpoGz85t7j8dNR3Wz7oRYZmRlpKB2YjXOHdkYw1Iit24+0yyCoszZ6sl34xQ15uPKn8lO6Rsb6L0N4dmF4OWv2d5CgHhnaQLfZTKJBvb6+CRs2HcL5I8OjNbMxYmhX9PB2xIb/HEJ9vcZzFII6PO50XDPRi8cf6IfiQutuv/KGx52O4T/pgiEne1BZ1dA8TXB8oa4G6NodWg11X0EGfjOrFyZPykf3rvKziKkKjzsdw073YPiPc7Drh3pUVkfeRSOot99Y1CcTs+/y4fTBamocKnbW46Fn/FF3SQjqHOlnnrOO/SSeoN7cXLv9kME5mDd3gCntyNi6LYTHfrsd31VojNZTGOoTL8nHtKt8cMdhxMYbaz8/iHmv7kZllcbjE5ug/txv+qFkkJu/MwDl3wRx+6+3c3VoBdQ97nTcMtWL0SO7iIjbHuWbQ5jzYmUE2AnqLRvHj+mC68d3U/K8HACCoUb8/IEfUFkdO4EMQV0/2CP0OJhJNKhX+utRWVWPEUNZ7yyLRfduGbj0wvD6wBu03ntPMaiPOKMLnp5dhPNGdFNyJ8TK6H18R0y8OA85nnRs/m9d7PNXG6CuboTO7lAV1MMFb3l48E5rC95UhS8/A+PHhR8DbNnacn5TG+q+/A6YfacPF53XWVmdQzDUiDsf24Nduxl1RSCo64Ux0G00AyQe1L+rCCmFOhAe+Z81tCu++TYYWzCXAlAfcrIHv7yzN66Z4I3Lc1QzMfCEbFw6trtG4Rwsh7p6oGt3aBbqY87pggfvPA7DfmxfwZuqGNg/CxdfEP6BWb45hFSF+vXju+PenxegV091dSwtMK/YYbzKJUFdO/iAbpOZ1lSrPCjQsAvqLaP1HE86vvk2GP1sPUmh7vNm4rafHR+3gjdVES6cc2Pced1RWV2Pnf+LKKyyEOrWAF27Qxmolw7Kxm/ui1/Bm6poKZwbM7ILo3BOJxIc6sNOc+PJ+3pi2Klu5T/G7n+qElu28h9Lgnps8APdBjNRqVZ5UKBhF9QBYNAADy69sAD1DU345tuIEV8SQT1c8ObD478qtK3grbKq3nKoeNzpOHdE1+bCufq25+sWQd06oGt3yPv1aS14u8Kegjd/dQMqdhyBLz/D0n5aCudKB2XBX320XeGcTiQg1EsGZmHW9AJceXE3eBQ9K2+JYKgRtz78QwTMBThBUI+K9OP73fCwZRAw2Z6gHo7MTBd+cloXjBuVh0DgWNsrbkkA9YmXFOCJXxXix6d2FhGXjpV/34dfPr4dC9/yo7KqAf0LsywHu68gE2PP64Ye3kxs/f5weAphC6BuLdA1OoT+18fjTsed03tg1i3HwVdgLVyBMBjeen8vnpxfiT+X1aJixxEM+pEN5zc/A6NHdjaYmKZdJAjUSwZm4d7pBbh+fHd4LfiBFL7NvlvjNjtBXcZD2hnNVe4EdZnm2u3HjcrDL+/qZ0pbLyqr6vFhWQ3eed+PQFD74uF0qI84owtu/dnxtt1a3/h1AAv/6MeG/wSirHnc6Zh4cT4mXZIHt+TqXaKx6O0qvPvnGgRC/GsD8EBdbZU720nMlnabPO50TLioOyZclKus8tkoVn16AC8sqtJcb2HKpDxMuLC7bV4WL92LZR/uZ/5ttoaDoT76rM6YPKE7vHnW3VEJhhpx52+aYW5yPwjqzZvOiHhtjaAu01y7ff+ibMybO8DS0UEgeAxr1tfinferNCemcSLUh5zswbRreqD0ZHPT5/JGZVU95r3yA9b8U2PZxQhrHnc6brupp6lFXUQiGDqGhW9V4d2/1HC3MYK6NNB/td30D7WWr8+Yc7piyhX5lozmtKJ8cwhPvrDb8HUyjzsdUyblYfw4tXfPWBEMNWLRu2Gw64aDoO7Lz8D4sV0w+qzOlv/4qdhZj7se3R19N4OgLh7t2kcBXbdjG8zoplrlQYGGHtQfuLsfigvVLSjBiq3b6vDhRzVY849a7PG33b5yCtR93kxMu6YHxp5nEzCDx/D6W5V494PqiK0apttt8hVk4pe/6MVYZU19+Ksa8Pjzu2Ir4hmhB3VTQG/W4I/o5NKT3Lh1mhdFfTsJ9S8bFdsP44VFfmz8RmuGRfaO+PIzcMtUL4adbtP5rW7AnBf92LiZMRMkEFeo+/IzMOw0N0afnYMi5gI1aqNszSG8+MZe7UcTBHXxiGgfA3Tdji02Y5hqlQcFGiyoezzpeODuQow4U810iDyxdVsdPvtHLTZsOoQNmw7FFeoedzomXVqAqVf3EHFhKhY2g1x7uVtjqAPNc8Xf3gteux4JfBPEvFd3R0wlyw7Whf65x0wCPSwuEGnwFWTg1mk+DPtxjlC/suGvbsCid6qx8pMDLRaY3vSidFA2bpniNbUMq0iUb67D/MVV7Ir4OEB91gwvRp1lz3lriQVL9mLZygP6SQR18Whurwl03Y4tNMOVapUHBRosqAPAtOuOw7Rre5rSl4lA8Bg2bDqEX86u4G+kCOqTLinAtGt62DbD28q/78Prf6xsnoZVL/igDgDjzuuOW2/qadvz9ZUf78fCt6sM90HrQq8E6GFxw/C40zHlinxMuChXqD/ZCIYasfSv+7D0b/tif6iZuICPGdkFUybl2faIYNXqg1j87l7tiniboT7z+jxcPtaegYa/5iieeqka5Vvq+BoQ1MUjLQ3px/ed9rDt1dIm2yci1FtGy6eUdrb1HdzMTBf21zbgw4/22jZSH3FmV/z20WKcd5Y9M7xt/DqAJ57diXf/zBqVawUf1L/7vg5/XrEXDQ1N6F+UZdkSrS1R3C8L487rhswMF7Z+r7XiV1u0v9CPPU+yyv1jjSp3ndM/5YoCPHTX8SgV/PEgG6s+PYB7f7ML/9oYYB8PyQv41u1HsPLTg+Hz26+T5RPdFPft2LyiWxoqdhzhnlHQCqjvrz2Gn55v/ZS7678M4v45ezSWQDUIgrpwpJ0xcm2TnhBBXaY5u73Hk47bp/fG2AvyTPUhEq+/uQev/2E3AGufqfcvzMJtP+tlb8Hbyz9gzT+Nbr+ygn+knobw8/WpV3ttLZyb9+oerPiYXVgVeaFXNkJvE4+KMed2xdQrCuwrePsmhCfnM+bH1wqTF/DwvPIFGH22PfPK+6sbsHjpXqz8tF3Bpo1Q/+O8vpZVsgdDjXjq91VY94XBUsN6QVAXijag6wgR1GWa67cfMbQbbp/R25bXtm6d9f+i5oZXfT5bC97Ot+n2a/AYXv9j+4K35rAY6gBQXJiFW2/saV/hXHUDHn+OXTjXcqGXB/r30Nvp0pPcmHpFvrC2bFRsP4wXXo8oeBO6oAp/EBP9+3XCzCkFKBlofTErAFTsOIL5i6qjC+dsgrpVz9HLPjuEF9+oQaBO69U9grqhrCR/ooGuI0RQl2mu397jSccN1x6HiZd5TfVjFMPHfhmzTcX5bCl4m3RpgW3PyRf+sRLvfhD5vjE/kNkhDnUAKI1D4dwTz/1P8/l6GtJMAj2sEhm+ggzcekMPewve/hRR8BYZNkM9LS1cODfr5h42voJXF72imw1QH3aaG7PvUlewWrGjHi8uqUH55ohn5SaBrEIjVaAeC3QdIYK6THPj9v2LsnH79N4oHaz+wrl1WwhTZm7R/MzM+Rx7QS5u/9nxNhe87UGlX6tYLH5QB4CJF+dj6tVeWwvn5r22J6Ze4PnHCk0CHQDSwgVvV9pd8LYXS//aUvDGeeD1QhHUgXDh3MwpXtsmpln24X4sXro3PDGNDVD/82uFpvctGGrE/DdqUPaZxiqRHB64gqBuGOGiOAEhgrpMc/32+/Y34MOPavDdtjqcNNCjtGju76v34fMvDig7n0MG52DenB9h7Pm59hW8PbND5zW0VnNcm/RDDuqb/xvCB82Fc3bUDxT3ywqv6NaucG6MgqK4KVcW4KG77Sx4q8W9j+7Evza0L3hzDtS3bj+Cv3xUi/qGJpQOsv42fHhFt67IzExD+Td1lkO993GZ0u+gB0ONePvPtfjNPH/rXOxih52gbigroqE5QjcQIqjLNOdvP25UHqZdp2bFsftnb8Wa9bUtJrS9cej0L8zGbdOPR+nJ9tx+rayqx/Mv/w9r/2nwzmpUxHekDgC+go7NhXP2zEjmr27Awrf8WPHxfjz3WKEwiFtG6GPO7YapV9pb8PbCwkqD9+6dA/WW8OVnYPKkPPsL51ZrzHQINVCXue0eDDVi2YpaLFtRi0BI4yavoAehIKiz2+sCXUeIoC7TXKy9CrBPnPwf7PFHLt8pdj593kxMu7anvQVvb1binQ+q2ryJfdm4NqnSYB3N0pM9mHqVF6Un2TPS3br9MHLc6cJA9lc3oLKq3raCN391A56ctxsbv+GbGc+JUAfCz9cnT8yzrXCufHMdFi/dqznjnFmoe7LT8cFrhVzN/TVHsWxFLVatPthuprdYYYI6V4f8shwaxkDXESKoyzQXbz9kcA4mXe4Tnm2usqoeE67fpGVC21vEf3vc6Zh0mdfmgrc9eOd97VvriQh1ABhxRmfcemNP2wrnnBrBUCPmvV7Zenvf9PnU2SyWaw4Cw0/Pwcwp9t3ZWLX6IBYvjZ2YxizUZ9/VE8NOY/+oK99Sh1WrD2HV6oNCx5KgztUhv6yBBh/QdYQI6jLN5dr38HbE2FF5GDcqj2vUvuKjvXjst99rf6hzPsdekIvbf97LNpCv/ecBPPfyroiCN4a3BIU6AEy9youJNq7o5pQIho7h3b/siyh4a4tkgTqQhskT8zDhwm72rui2InpFNzNQH312Z9w7PfptG3/NUaz7dwDLVhyIndmOoC6VajXD+IGuI0RQl2lurv2QwTkYNyofI4Z2ZRbRPf/7XXhnuV/PRIzmA3f1tW9J0/8E8Pqbe7DhP1qVsckHdY87HVOv9mLCT+2bVCiesfKTWiz6U1XExDAaF/skgrrH7cLkiTav6LY0ekU3Wah7sl344LUiBEONWPdFEGv/HWg3IYx+e6MPCOpcHfLLslgsBHQ9IQUaVrRPZqi3eOhflI1xF+RiyOCcqJXdps7cjO8qdFZ5amlfmI3bbS54e/3NPVjxf3sNMpMP6kB4xrlbb+qJ4T/pLGokIaL8myDmvc4qeEtuqAPhwrmZUwrsW9GtJnpFN1moF/fpiK07jkDoYBLUpVKtYpg40HXMENRlmqv14PGkY8jgHPQvzG6d7pUVPbwdwwVvF9hX8PbO+1V4/Y97BFolJ9QB2F44Z3X4qxvwxLwfOJaCTX6oA+HCuZlTCmxblrR8cx3mvxFe0S0e66nzfEBQ5+qQX7adhhzQdcwQ1GWa2+9h2rU9Mekyr20Lxbz7QRVe/0PEZCgKLuDJAHUAGHt+N0y90puwhXPB0DHMe60SKz/RWOSFGakBdSA8Mc3kibm2Fs7Nf6MKwaDApZ2gHs5McKjLA13HDEFdprk9HjyedLzw1AlRt+atjLX/PIDnfr9Le4Y3gnrU5qlXeTHx4sQpnGstePvLXmU/1JIV6h63C+PHdbetcK5ixxHcMXsXQV1CI5Ghbg7oOmYI6jLNrffwxEPFwq+/yURrwdsmxlSQLUFQj9rscafj1ht72jYxjWys/KQWi96u0l4JjaDObO9xuzBzij0rulXmewZIAAAgAElEQVTsOIKbZu2g2+8SGokKdfNA1zFDUJdpbp2HIYNzMO+pE8zr60RlVT1e/8NurPi/ffyNCOoxm30Fmbj/9l6Oe75e/k0Q817bE1HwpgCoKQZ1ILwuuh0ruj21oBIrVx8kqEtoJCLU0844e22T+MWM3wxBXaa5NR5un94LEy+1ZmW31oK3yEI8kf0gqGtuLj3Jg1tv7Inifp0EvakNf3UDnnj+f4yCN4J6a6YgRMIruvkse76+7osAfv307mYXBHVRjUSDehjoop0KmiGoyzRX7+GFuSdY8mrau80g11w8haBusJkveex58Smcay14+3i/QSZBvTVTAiLhFd0KlD9fD4Ya8dNpWyNcENRFNRIJ6m3fHvM33oEmbREhaYaGFe2ZmWY9KNBocoAHnlj45h48//td7JXQRDyIfVFMd6epIXzI+DWE/jrabV7x9/1Y87n2Ah1WxoqPazlgDgjuNLeG6fMp6oF9UeCX0EzVb7/y0wOYM38PglHzo5uP9j8QmkQOhsR+8KVqnGerPCjQYH8HLbq2mWBYh5hPzQ4Mm5o0f2EISTM0zHrQTAXDl1kPCjSamprMj9RV7IdOTL2mB4YM9uD1P+gUwIl4EPuiaCaL7bKGhvDfAb8Gw7FucrxG5wAw4aJcjPhJZyx8u4oD7EI7za1h+nyKemBfFLhFtD1rtw+v4JZr2wpuTWjiH6lrWhY4mALHUuywC/6RmtRgfwdVHAuhDnVl2265RwbdflfnQYGGqtvvVt1yb4m1/6hlv6LW7IE76Pa74yaeKf8miIVvV0lNHKO3mTc52W6/t7zKNnmitRM7nXvl/9PcTrffxTWcfvu9g5oRikbQSF2ZhrKRusUx/MyuGH5mV/YzdRqpG2wOb/UVZNq6pjpvlAxy49lH+0W8ssb44UYj9bZMxkh9zMiuljwz1zYBxqGgkbqohtNH6h2YPRDU1XlQoKEG6uaa88bESwsw7oLc2Kp3gKCus9njTsfEi/MdvyrbmHO6Ysw5XbHoT1XRk8pEBUG9NTPCc7iqvYdts8a1mQBBXZGGk6GedsbZayIu8ypuO2r1wnODUU7DivbsuyoKDkYcb7+/MHcASgfbswBLS1RW1eP5l3ZhzT/aTQtKt9+jNo89rztuvamno0GuFcZV8ApufSfB7Xdffgbuu6WH5e+da8W5V0TccmceCrN/jyr+njXOs1UeFGg48fZ7O6AzeiCoq/OgQEMW6vEAekts/M+h2MI5gjqGnNzynnmWqLijgt5T1w6POx1TJtm3pKpWRAEdIKgr1HAa1DvEbqLb70AK3H63OUpPzsHz/7+9c4+OokzX/ZMEQe0GgZCkA2GAAT3LASTMWo43mLMFVMLIRSVBQJEkqHMcAuo6M0tlr7PO2qPizHbmQGDGQYaADqhJ8AYjwQvM3gPeZq+1uc85e3NTueRGuKZRweycPypJd9JV9dX31VfV1fC8/7BW1fM+9XZXun9UvW9/9aueqPmoCRVrjxuDc5fx7fdIdnc88/hA5I/w5xGbXkdO1hVY8ssh2LUvisXlx7r01y/P2+9zi/ph+k/6+tMnlwneftfmEbTb7yZAtzgCoa6vBg0eqQh1ACiYkImCCZlYva4WVW/XG/3Xywjq4VAGSmZFMH1KPxmTlIlRw0N4Y8V1WP/nJqx5oyGuv375QH3Mj3pi/txs//vkMkGoa/MIEtS7Sb1ThLq+GjR4pCrUAeP360XTslGx9jiq3mm4LKBeODULJTNzEPLpkbXJjOl3Z6JgXG9UbzTAbsSlDfX84VdhblFWUvrkSkGoa/MICtTTbv5xWw9dpheggyHsqWvzcAr1ZPbQ7aJjcO6zM86T5P5QzLe69XCYP/bma1D28ABEUvR5526jvvEilq2qxfaOle4s3jiX5yNZPfVI1hWYW5SFu/7Bn4VhZCOhh941LN8KiTfDVOo233yHDKqkYeXSI9k99dgtd16p20vBK3WvIpLdHc//r6HG4Ny6OvEjV4GUuFK/9vtXoezhAZdMn1w1crKuwLNPfa/LwjSpf6UevjoD0+/uG8w+uUzwSl2bR7Kv1Lsu9GtzBPEm6eDa79o8tKz9bhI795zD87/5wnqtdo2RP7Inyl+4Fs88OQiRHAdXs3J/KOZb3XqYbDIG3r6HVUv/my8wr2+4gIWLDjlYwS0xdu6NYuGiQ6g3e6655mhfmOapBXmIZFv0l12eD7/Wfp94+zX444tD8FBhP19g/kp1E97c5GRNfcWwfCsk3lBTqdt88x0yqJKGlUuPZK79njgUxyt1eykuvyv1TR+ewF8/PYWiaTkouicHYY97wJ0G595psP/PRICu1MOhDBROzULRlCxf+uTR8y1YtvI4ara0fdHPVHs07s69URQ9/P9QML4Pyublev5b+Im398bYm3qiemMT1m88abKiIAJ7pZ4//GrML87B0MH+PM72/X89g1eqmlDXeBEPFXo8SMkrdW0eybpS7yZXN6EOXJ5Qb25uQcXa46j5sAklD/RHwR3erj8NxA3OtYHdMgIA9YLxfVE8K+Jbn3zN6/Wo3nBC652Tmi2nsO2zsyic0g9z78/W5msWoaszMHdGNgonZ7YtTNNl4aGAQT2SfQXmF+fgthv9mUHZ9ffzeKX6BHbuO29em1S4hwihLu+RDKh3s8wh1O2luPygDgC19d/iud8cRtU79Vj404GePuwFAEKhDJQ9kofCadl4/rdf2jzRDUmB+uiRYRTPjvjWJ9/++RksW3k87nfees9zc7QFq1+vR83WUyi+P9vz9eRDV2fgqbIBHWDv1DYIANTb++QPFfnzM8P6xot4pfoENv9L/IColi9Y5x6EujYPv6HeccudUJfPv1yhDgD7D57H/J//B0bf0BOL/ucQz69MI9ndUf7Ctdi5pxnlK45g/6GvE0U+Qj2S0x0LHs7DmJv9mWzeubcZq1+vx849zV32ePNlX1d/AYvLjxpgn5mD/OHePvFt6OArseSXg/Hx385h2apa1LX39JMI9el398XcGVm+9Mij5/8L6987ifXvnUJztMX0gS7ug1CXrkGDh59Q79RDJ9Tl8y95qAu+R3bsPofpc3aj6J4clDzQ3/P+ev7IMCqWX2+sOLeuNvFRrR5D3eiTZ6N4VkSiavWoa7hgXDFvOdmxzeWnwyLMP8/tQ3MF4/qgeGaO54ul3PajnrjtRz3bFqZpNFoKPkM9f3gIT5X1921hmPf/5QyWr+k8K2L9PHW3QahL16DBwy+oJwzFEery+Zc+1MU1VL1dj00fnkDRNAPsXkfBhEz8+JbeqHqnIXFwziOoF07NRsmsiD8Db9EWVG04geoNjQl9couKNRzV+vNcs/UUtn1+FoWT+6FwSqbng3PtC9OsfqMR6zc2+QL1YUOuxPziCEYN92dhmF1/P4/lqxtw4ItvTPfr+PowD0JdugYNHn5A3XTpV0JdPp9Q939wLhTK6BicW/ryUdR82BRXL7RBffTIMJ5+YpBvA2+bt5xE+cq458mbfqH6D/XmaAtWv1GP6o0nUFaa60t/fX5JpK2/Xovtn5/zBOrhUAbml+Tgrn/o7bZkR1HfeBEv/K62beDNPgh1kZRQj49udl8NhLpcftCh7joc1tA+OLfpwxMofbC/L4NzzzwxCCWzczsPzrmEeiSnOxY9MQj5I/0ZeNu5txnLVh7D/kNdrtgsv1Ddf8TMw/7z3BxtweLyowbY5/X3vL8evzDNslV1lle0iSGG+twZWZh+d6ZvffI1VY1Y/157+8QtBByGHOGkPAh1eQ8vod7Nbi+hLp8faKi7O7p0DTt2n8P8n/8Hxt7aGwt/+r3kDM4pQD0cysCCR/NQML6vd8XGRV3DBSxbeazL0rfOPkvJgjoAHDj8DRYuOoT8ESE8s3Cg5z3nUcND+ONvh2LzX05jTWVDbHDONsyhXjCuN+bOyPKtT/7mppNYU9X1Z4ZyEHAVhLq+GjR4eAX1brZ7rbYS6vZSBBfqWkKyhm2fnMa2T04nd3DOYbklsyMomprtW5+84vU6VL/baLLX+WcpmVAHYgvTFE7uh+KZ2T4uTHMS6//c5OC3+LGi80eEUDwjy7c++cf/dg7LV9cb//lw+wXuNgh1fTVo8PAC6t1s99ptJdTtpSDUu0bSB+fOW3/xF0zIRMnsXN/65Os3NKLitToBjOSg7k04r6F64wnUbD2Fwsl+LUyTZQzOVTYkLkzTJSLZ3TB3RjYm3u5Pn/zgF99g+er6zn1yHUB1G4S6vho0eOiGuslQHKGuK59QT4ykD8591NRp/+iRPVEyO9e3Pvn2z86gfOWxuIVhROHRZ0kqnNfQPjhXs/UUykpzMeamXp5WlpN1BZ6aPwAFt/fG6srGhPXsw6EMTL87E3NnZHlaR3vUN17EmqpGbP6LxZMDCXWBB6GuVEeb1OJ56IS6rnxC3TySNThXNDUb5S8fRW3DtyiZnYuC8d4vYQsABw5/jWUvH8OO9oVhpN6y1II6YMwFLFr8JfJHhFA2rz+Gebz2+ajhISz5p5CxME2FsTDNxHG9UVYS8bwFALQtDPPnk1j/nsna9F2DUBd4EOpKdbS2X6ET6tpqMJWCULeK2OBcHyz86UDPb3kP+/5VKH/hWk+PER/RaAvKVx5FzUddnpQl/TlIPagDRn+99PH9vi9MU9940deFYdZUNtr0yU2CUBd4EOoqHoLnoRPquvIJdfvY9skpbPv0NEoe6I+iadmeD855HdFoC6rebUT1u/GL3rj9HHj1WZLxUKvB74Vp/ID5rn3nsaay0WGf3CQIdYEHoS7r0bmHTqhrq8FUCkJdlF+x9jiq3q5H6QP9UTjN28Eqr2LzlpOoeM1kWVotn4PUhXp8f734/hxMHOfPgJruqG+8iOUVddj+t3OwIBmh3rGZUJf1cAN1h89DJ9R15RPq4vzmaAuWrjiCqnfqseDRgRh7S2p88e/c24zV62pjfXLT8BDqbsMHqANGf31x+RGs33gCZfNyMcrjhWl0hdEnb8KayvifGVqSjFDv2Eyoy3qoQt106VdCXV8NplIQ6k7ya+sv4Ol/OojRN/RE6QO5ng/OqUZdwwWUv3wU2z+zmGxOCI+griN8gjoA7D/8NRYuOowxN/VC2bxc33reKvHmeyexpjJxXX0jCHWRlFCX91CBujnQJYsh1OXzCXXn+Tt2n8P8X5zDpDsyUfJAf99+Ky6K9j55xbrajm2qj+q02iTtoSN8hHorWrH987PY/vlZTJ+c6cvCNDKxa995vLD8mINV6YIMdW9gKOtBqMt7yELdGuiSxRDq8vmEulz+pg+bsKnt9+szpvmzmptV1GxpQvmKY4lPQpN6yUGAusW9ep+hnoY0rN/YhM1bT2Pu/dmYPtmfnxNaRX3jRSxedhw790bdnU+bzTIWlufJcRDqdjsuFaiLn0hg+ndk/sclITXf4fZvFoDVosdS1m4XTpbIt357NLwZOjySXYNJfsXa47jvoT2ofqfBnbdC7NzTjMKSvXj+t1+iOfqdqUbuJev4HOj4sndr6+51tLaJm6MtWL6qFvc/8p/YtS8qyNIf0fMteGH5ccx4dH/HIjWuz6fNZtdaqZA6IZ55tLr28OZ1yL1kyZPk0sP6b7DzDvsr9PgcXqlrqcFUiuBeqWv5bvHgvYwfnFv46ECM8Xhwrq7hgvEktz3nuhYH089BUq7U3YSGq0tNV+qA8X4vXHS4bWGaXAz1eGEaAFhT2Ri3NnyXKzi359Nms4yF++CVut2OVL9SdwZ0yWIIdfn8QEO91Z/nqavkxw/OlXgwOBeNtpguGdulOAQD6m4jWFAH2hemOYCJ4/qgbJ43q76ZP73N5MueUNfqQajLe4igbvk8dLfFEOry+Z5D3VV6cKHeCmNwruwX51CgcXBu9bpaVHVaGMa2OBDqNmIXUAeAzVtPGYNzUzJROFnPwjS79kVN13+Pr+RSgLp5zYS63Y5Uhbrt89DdFkOoy+d7CnWXt2WDDvU0ADUfNnU8qrVIcXCu02NXAXcgsy7ZuQehDsBos6x5vaFjcE71yWn1jRcdPaGtvRJC3U5KqEvXoMHD6m9Q+Dx0t8UQ6vL53kLdXaQC1JujxhPdAKB4dq60/fO//dLc2FlxpuIgQ13ik5t0qANAXf0FvFB+FM3RFky/W34avvSJg8ZdFxevIylQdxmEukia+lDvMuUu8VdjKjXPl5Ca79Dwx8zpd33RGoQJfB3nU+p47sX+T7+7Opr1AX18HZYT0a1w2ApJjI48l68jFaffzWt2+72vx4PT7/IeXc+nyc/WCHUVDy/yCXW1fEJdLVIR6q4j1aCuIQh1kTR1oW7xO3RCXcXDi3xCXS2fUFeLlIO6jiDU5Ysg1PXVoMGj/Xyme3diCHVd+YS6Wj6hrhaEuryYUNfrQajLe7S2tl+hE+pq1oR6WwnBhbpnQagr1hEEqHvzOgh1vR6EurxH7JY7oa5mTai3lUCoq4gDAXUpthDqdmJCXa8HoS7n0bmHTqirWRPqbSVcIlCX8SDUFesg1PXV4D4IdZE0NaCeOBRHqKtZE+ptJRDqKmJCXSVfRxDqHYcj1AXS4EPdfMqdUFezJtTbSiDUVcRaIOA2CHXhZqfi4EBd4nuFUBdIgw1168enEupq1oR6WwmEuoqYUFfJ1xGEeoeSUBdIgwt1++ehE+pq1oR6WwkBgLqOuOSh7vyzRKjLexDqej0IdeuN9kC3PS6hruLhRb63UHfnQairiQl1lXwdEWCoawlCXVcNQYS6GOi2xyXUVTy8yPcU6i49CHU1MaGukq8jCPUOJaEukAYL6s6AbntcQl3Fw4t8Qt2HCDTUdQShbntAQl06n1DXWIPAI939GyJZEKGurQZTqVc1aPAg1NXEhLpKvo64RKCu4XubUBdJgwH1dOOfIJwYQl1Xvqffe4S6fA2EunCz2xqkQgdQCXXpfEJdYw0W8vTYviCcGEJdVz6h7kMQ6oLNhLqdmFDX60God+mhE+qCINTjzC9dqHt2Pgl14Wa3NUgFoa7kTaiLpMmDesJQHKEuCEI9zpxQl66BUBdu1iD2yDYIUNcQhLrAI3WhbjrlTqgLglCPMyfUpWsg1IWbNYg9siXUO5SEukDqP9TTvXtDJAsi1LXVYCp1dySBOaEuXQOhLtysQeyRLaHeoSTUBVJ/oZ5ul0OoCyLFoO5pEOryNRDqws0axCbZHtZAqEvnE+r6aojdcifU1YJQjwWhLl9DEKAunU+o24oJdel8Ql1PDZ176IS6WhDqsbgUoO73+STUFesg1LUFoS7wSA2oJw7FEepqQajHglCXr8F3iOjIDwLU3QWhbluCaEeiklAXSL2Fuvla7oS6WhDqsQgC1N1GKkLdbRDqijUEGOoyHoS6wCPYULd+OAuhrhaEeiwIdVsPDcYyYg9tCXVbMaEuXwShrlSD/dPWCHW1INRjQajbemgwlhE79yDUFWsg1DuUhLpAqh/q4senEupqQajHglC39dBgLCN27kGoK9ZAqHcoCXWBVC/UnT0PnVBXi0sF6gHwINS1ip17EOqKNXjo4TYI9bjNlxbUnQHd5giEuiBSHOq5OT2QG+lBqMeKMN+swcONcSSnOyI53WWqMPKyu+YR6sahggf1SPYVMolObV1oCXVdNeiCenow3hDbHQ6lhLoX+ZGcHli/djRK5+QhHMpwV4OLOmLphHp8hEMZKJmdi+qKEYhkqwG9atVwPPPEoLjzS6gbhwoG1PNHXI3KFddi4u29ZQ6stQZCXeQRDKh3i+1Nc16MibQVrUhz6eG+DvN8Can5DomyLKO1FUhzWJukh/Ma1FNL5uSh6L5cLP39F9j0wQl1I8D162htbUWam/dBR/h9Pk2MCyZkYuEjeQhp+I/WxPF9Mfbma1D1biOq321Ac7Ql8YDSnwPnnyWJT677z6PU14zF95rciTYXCzyGDbkSZSURjBoecnog7TU40zo3Mf+Td8+fYDDMm9ch85K76SyGUBdEEKDuIsKhDCz6+VDMuDcXS176Ejt2nVU3I9RtPcy1hvHokT2x4NE8DBtyldOjOIpQKAPFsyIomNAXq1+rRc1HJxFoqLuJAEM9kn0F5s7IdnFF7r4GWQtCXV8NbqDezXavQjGEuiBSHOoAMGzo1Vj+4vXY9skpLP39l6it/1bNiFC39egakZzuKJmdi4IJmVIlykYkuzuefnwQCqdmY9nLR7FjT7SzgFBX8hC96HAoA9PvzkTh5L4IXa2hvaVQgxsLQl1fDapQ72a7V7EYQl0QlwDUAWDsrX0w9tY+qPjTMVS+VYvm5hZ5E0Ld1gMwvuiLpmWjaFq2ltvrTmPYkKuwdPG12Lm3Gc//n69QV38htjMoUHcbAYH6xNt7o6w04iHIxTUQ6vGbUxPqFs9Dl/ivr4WUg3KCSMKg3P6DUbFIIUoeHIA3147GpDuz1Aw4KGfpUXBHJlb/7noUz871FebxkT8ijKpVP8AzT3yv82Ck9Nvu/LOk4d10HlJfM1IFCw+YPyKEypevw1NlAzyB+a5954U1ONksp3VuwkE5kTRxh53U5nnoQXhDdNRBqLdH5Zu1Ms5SYfTXv4831+Zj9Khe8gaEeieP0Tf0xLJfXYdnnhikNL3uRUwc3xfVFT9A8axIbGNKQt3d51kH1CPZV2Dps4Ox5JeDkZOl8edoXWLzX07b7CXURdJUg7rgeehBeEN01EGoA0Bt3beoess7qAPGz9yWv3g9lv/meuTm9JBLJtQRyemOZ54chPIXrkX+yLC+ujRF++BcVcUPUDChr7GRUHfsEQ5l4KkFeXhjxXWaptet4+AX3wiADhDqYmkqQb1bgsKDXgB76oLwsae+5HdfIBzupn573GGMvqEX1q/NR9XbdVj16lHn/fUg9NRd/zxQ/nyGQxkouifH9z65ahiDc98zJuLX1WHHnuYk9NTdhrvPs0xPPRzKwPTJmSicnOlLnzx6/r/wwvLjDtVSb7yUhYwJe+oiaeKOrlsSh+IIdfkaUgzqz/7qAHbsPIOFPxuiZ7EYmyi6J4JJd2ah4tWjqHyrzlnSZQb1gjsyUfJA/8DcWpeJ/BFhLF08DNs/O4PylcdQ13BBnNQRbqGuI7yH+sRxfVB8f7ant9bj4+O/ncPiZcfRHG2R+BMm1EXSVIC6yZS7d8UQ6oLwEervvd+If/34FGbcl4vSOXlSZcpGOJSBBf9jEIrujeDZfz7k7PfrGqDuOjyG+ugbeqLkgVzkj+ypfoyAxJibr8GYm6/B+g2NqHitrm1hGidx6UI9f3gIZfNyMXTwla4rdBK79kWxuvIEdu6NDb/K/QkT6iJp0KFuDnQPiyHUBeEj1Jubv8OqV45g0/sNKH1ooOe34dv76zt2n8Vzvz4k/v26DqC6DQ+gnpvTHSUP9Pf89+Ttsf2zMzgX/Q4F470/3vQpWSgY3xdVGxqx+jWHd2QuMahHsrvj6YUDPO+Rt0d940WsrmzA5q3t/fIuX/aEulaPIEPdGugeFkOoC8Ln36nX1n2LZ391AJs2G2BXmlKXiPb+es0HJ7DkpS/s++sB+L29LqjH98m9bnUAwIHDX6N8xVHs2HMOAFCxrhaLnhjs+bBdKJSB4pkRFIzvi9Wv1aFmy0kHWakP9VAoHWWl/TFxnO4V3swjer4F1RtPYk1lQ5c9Jl/2hLpWj6BC3R7oHhZDqAsiCYvP/Puus/j3J/fhJ3dlofShgYjITqlLRsGd/TD2tj6oessYnLOMSwDqkyZkouRBf/rk0WgLlr58FDUfNXXaXld/AWVP/adnS8d2jU6Dc6+1Dc7ZhhzUvQn5z3M4lIHCyf1QOMWfgTcAWP/nJqypbLRpbRDqumpIJaiLge5hMYS6IJK0olx8f33GfbmeXk2GQxkoeXAAJt3ZD0tf+hJ//fiUuTBFoT76hp4ofbC/b33y1etqUfVOQ+yL3qTcHXvOoXj+/0XBhEyUzM71/D8Z+SPCWPr8MGz//AzKXxYNzqUW1AvG9UHxzBxfB96WVdSiruGiAzWhrquGVIG6M6B7WAyhLogkQT0Z/fXF//s67Nh9Fkt//yX2HzRZ4SqFoJ6b08Pok9/hX5986YojnZdnBWz/UGo+asK2T08by8pO9f7ncmNuugZjbnIyOOfRZ0kq7GvIHxFC2bz+GObTwNvBL77BslV1sYE3F1Am1PV6BAnqaT+6dWur1CfFVOo2H87fENvDefM65F6yyQ4dX0QWn0Apaxcw/OGoXiidOxCjb/C2v94etv11h6+j9MEBKHlwgPSxx9z1b2KR1brr4QwUTctB0T05/vTJD32N8pePYsfuc/ZCwVsWDmVgwaN5vgzOAUZbQDw4Z/9ZKp4ZQfHMHOlj//epuyXUnWsw2gh5yPdz4O2N+IE3y9IEkSiW+zqw/OJ2bSFjYl5zENihg2EaajCArsMsCG+IjjoIdbv4ycRslM7J87y/DgDN0Rbr/rqD1+Ep0E1qmHRHP3/75CuOtD3i1GE4OPWRnO6+DM61R13DBSxbeQzbPjtjobD+LCkDfcpuaRiGQxkom5eLieP6SB9PJYyBtyas39hk/mz6WGkSQajrqiGoUNf4PPQg3LrQUQdvv9vFe5sb8N77jSidk+drf33Vq8ew6YPG2M4A3X5PSp/87fq4Prnbz0ws4gfnnnnS+3XkI9nd8dyiIdi5t9licM6rz5Izj3AoA4VT+qFwSj/fBt42/+U0lq+q7dKS0HDrm7fftdUQ1NvvcVfoHZucmVlKg/C/HB118EpdlB8Od8Pjjw3yvL/eHjt2n8WqV491XpjG5nV4fYWem9MDJQ/2R8Ed/aSPoRLbPz1t3icH5M6nhLRgQiYWPpLn23K0m7ecRMVrdSaDc4lFF89ycYVubdsRBeP7oPj+HOT4tILfrn1RLC4XDQ3ySr1DySv1BKkHz0MPwv9ydNTBK3VRfnPzd3j21wdR+WYdHv/ZIM/766Nv6IXlL/ZCzQcnsOrVo8bCNEm4Ug+HM1B0T61NUZ8AAA73SURBVMTfPvmKI/Z9cpn3QeIPxRicO9M2OJflOdgnju+LieP7YvXrdah+N/5nWR5NxZnY5o8IGwNvQ/wceKvttMKbdfBKvUPJK/UEqcWUO6Ful0+od87ffzCKnz35d/z4tr54/LFBvv5+vfKtWmNwzieoT7qzH0oeHOBLn7w52oLyFUdQ82GTWAx4BvXm6HeoWFeLTR81oWR2LgrG93WW6CKKZ0ZQNCULFW1gN8JbqBsrvA1E/ggfB95eb8DmrW0/1fQTqIS6thqCBPW0G2/Z2mp9Enn73S6ft9/N8/3or7dHXf23sf561zo03nI3+uQDkH+DP33yii59cs/Op8Kt1mu/fxUWPJKXxME5ow4tt9xh9MnLHu7v78DbhviBt7jw+9Y3b79rqyEIt9/TbrzF6KET6iIpoS6Tn7T+etxtaR1A97tPvu3T0yhfcQS1Jn3yIEEdAEaPDPsyONcenQfn0lwAfReAtNjA21QfB962nsKytoE3y+81Ql3JhFCPAzpAqIulhLpsfm6kB/7xF0N9/f36qj8dQ239t66A7n+f/DyW/iGuT+73+XTxBV4woW9SBucKJmQqA71gfF9jhTe//jOyL4rFS48mDLwR6k60hLrTGjoBHSDUxVJCXSX/h6N64R9/MdSX368DQMWfjnVAWTaee/GQ8Vt7v/rkfziCTR+eSNyZQlAPhzJ8G5xrjwOHv1Zaj141TyUOfPENlv3xuO3AG6HuREuoO6khAegAoS6WEuqq+e3PX/fjqjfoUbH2OKreqbd/2lwKQR0wFqYpnZ2LiT4MzgU56hsuYvUb9ajZavFsgi5BqDvREuqiGkyBDhDqYimhrpofDnfDvDl5KLpX/ur5Uohtn55G+R+OiJ8H3x4pBnUAuG7oVSh7JA/5I/wZnAtKtA+8VW84YQy8Sb3thLpYS6jbGVsCHSDUxVJC3U2+3/31ZEdCn1wmUhDqaWnG4NzTT/g3OJfM2Lz1FJb9sesKbyDUVWsg1AUeJufIDugAoS6WEupu8/3ur/sdRp/8K2xy+ntyq0hRqANA4dRslMyK+NZf9zN27o1i8dIjcQNv7j7PhLoTLaFutlEIdIBQF0sJdR35P7krCwsfG3xJ9dcr1h5H1dt1sT65R+9lKkA9HMpA4dRsFM+6NFotBw63D7x1XX8eINQ11kCoCzxiGx0BHSDUxVJCXUd+ONwN998bQcmcPHfHS3Js+/Q0yl/6yrxPfhlDHTAG50pmpe7gXH3DBWPgbYto4I1Q11YDoS7wMDY6BjpAqIulhLqu/P6RHlj42GCMvdWf1bt0xYFD57H0pa8cPJ/88oY6YPTXi2fnpszgXPR8C6rfPYHqjScS++SWQahrq4FQF3ikIe3GW7a0un9DLI8gVYy7fEJdGCkG9TQAo0f1wuOPDcawoVe7O67H0dEn/8Dk9+RWQagDAMbefA3KHvHnd/+qsXnrKSxbeTzukbUy2YS6thoIdVuPNqDLFUOoi6SEuq78duWkAPfXE/rkMkGod0QQB+d27m3G4iWJK7wBINTbtxDqWj3cMCwO6HLFEOoiKaGuK79dGQ53w4wA9de3fXJK7vfkVkGod0RQBucOHP7aGHjb0z7w5hFQCXW1Ggh1U48uQJcrhlAXSQl1XfnxytxID5TOyUOBTw9+6RoHDp3Hkpe+wo5dZ43a3L4Phokn+akIdSB5g3PR8y0oX3kcm7ecNNlLqNuJCXW9HioMMwG6XDGEukhKqOvK76ocPaoXSh/K821hmuZoC5a+9KVpn5xQVxOLDufX4Fz0fAuq3j2B6g2NgkfWEup2YkJdr4cswyyALlcMoS6SEuq68s2Uk+7KMh6m4uHCNFVv12HVn47Z9skJdTWxk8N5OTi3ectJVLxeb9onJ9TlPQh1vR4yDEu78eYtrd69IXIehLpCDYQ6gLb++n25KLo3onVwbsfuc3junw857pMT6mpip4fTOTi3c28zlq08jv2HvrYrjVBX8CDU9Xo4ZZgBdE3FEOoiKaGuK99KmRu5sq2/3s9VKXX13+LZFw939MllglBXEzs9XDiUgZLZuZg+RW2Goq7hAhYv+Qo79pg80pRQ1+ZBqOv1cMKwGNA1FUOoi6SEuq5867cnzeivzxkg3V9vjrag4tWjqHy7XiovsQRCXUUsc7hITg8seHgAxtx8jSN9NNqC8pXHUNNp4M35Z4lQl/cg1PV6iBjWGeiaiiHURVJCXVe+HdQBYNKdWSidM8BRf73q7TqsevWotnXXCXU1sSwEjMG5iOXgXDTagqoNjah+t9FihTdC3VZMqMsXkSSoJwJdUzGEukhKqOvKF0E9HM7AjHut++s7dp/Fc7+26JMT6vI1JAHqgDERXzChLyI5scG5bZ+dwbZPz5gvDCOqg1DX5kGo6/WwOtfmQNdUDKEukhLquvJFUAcMsP9wVC9cOzQEAGhu/g5//fiUeOCNUJevIUlQV69BzoNQl/cg1PV6mJ1ra6BrKoZQF0kJdV35TqDuRx3m6cmvgVDX60Goy3sQ6no9up7rdFsTS9Q7fkAbWjV4mEvd5gOtGjy8eh1yL9lkh0RZlmFx8qSsrf8AtOdbvz0a3gyXHq0BqMH38yln7Ppwej4Hzj2k3k0fX4fl95qG8+HWw/X5lK3BM4YFgR2J59oe6JqKIdRFUkJdVz6hrpZPqKt5EOryHoS6Xo/4cy0GuqZiCHWRlFDXlU+oq+UT6moehLq8B6Gu16P9XDsDuqZiCHWRlFDXlU+oq+UT6moehLq8B6Gu16MVrUj3uxhCXSQl1HXlE+pq+YS6mgehLu9BqOv1SE9GMYS6SEqo68on1NXyCXU1D0Jd3oNQ1+eRbrvXw2IIdZGUUNeVT6ir5RPqah6EurwHoa7HI912r8fFEOoiKaGuK59QV8sn1NU8CHV5D0LdvYfJUByhHttMqNsGoa7Ng1BXExPq8vmEuhNtakI93SsYEuo66yDUdeUT6mr5hLqaB6Eu70Goq3ukW+cQ6rHNhLptEOraPAh1NTGhLp9PqDvRphbUY7fcA1AMoS6SEuq68gl1tXxCXc2DUJf3INTlPTr30Al1WymhLghCXZsHoa4mJtTl8wl1J9rUgHriUByhbisl1AVBqGvzINTVxIS6fD6h7kQbfKibL/1KqNtKCXVBEOraPAh1NTGhLp9PqDvRBhvq6XI5hHpsM6FuG4S6Ng9CXU1MqMvnE+pOtMGFerp8DqEe20yo2wahrs2DUFcTE+ry+YS6E20woZ5uvctuB6Ee20yo2wahrs2DUFcTE+ry+YS6E23woJ5uvUu0g1CPbSbUbYNQ1+ZBqKuJCXX5fELdiTZYUE8YiiPUVfIJdWEQ6to8CHU1MaEun0+oO9EGB+qmz0Mn1FXyCXVhEOraPAh1NTGhLp9PqDvRBgPqls9DJ9RV8gl1YRDq2jwIdTUxoS6fT6g70SYf6rbPQyfUVfIJdWEQ6to8CHU1MaEun0+oO9EmF+rC56ET6ir5hLowCHVtHoS6mphQl88n1J1okwd1R89DJ9RV8gl1YRDq2jwIdTUxoS6fT6g70SYH6uZLvxLqmvIJdWEQ6to8CHU1MaEun0+oO9H6D/V0mWIIdZV8Ql0YhLo2D0JdTUyoy+cT6k60/kI9XbYYQl0ln1AXBqGuzYNQVxMT6vL5hLoTrX9Qj91yJ9QFUkLddgehrq8GDR6EupqYUJfPJ9SdaP2BeuceOqEukBLqtjsIdX01aPAg1NXEhLp8PqHuROs91BOH4gh1gZRQt91BqOurQYMHoa4mJtTl8wl1J1pvoW4+5U6oC6SEuu0OQl1fDRo8CHU1MaEun0+oO9F6B3WLn63JFUOoq+QT6sIg1LV5EOpqYkJdPp9Qd6L1BurWQJcshlBXySfUhUGoa/Mg1NXEhLp8PqHuRKsf6vZAlyyGUFfJJ9SFQahr8yDU1cSEunw+oe5EqxfqYqBLFkOoq+QT6sIg1LV5EOpqYkJdPp9Qd6LVB3VnQJcshlBXySfUhUGoa/Mg1NXEhLp8PqHuRKsH6jZLv7orhlBXySfUhUGoa/Mg1NXEhLp8PqHuROse6oKlX90VQ6ir5BPqwiDUtXkQ6mpiQl0+n1B3onXHMAdLv7orhlBXySfUhUGoa/Mg1NXEhLp8PqHuRKvOMIdLv7orhlBXySfUhUGoa/Mg1NXEhLp8PqHuRKvGMImlX90VQ6ir5BPqwiDUtXkQ6mpiQl0+n1B3opVnWLrrPzBCXSAl1G13EOr6atDgQairiQl1+XxC3YlWjmHplkmEusY6CHXbHYS6vho0eBDqamJCXT6fUHeidW4Sd8udUAcIdbGUUNeVT6ir5RPqah6EurxHqkG9Sw+dUAcIdbGUUNeVT6ir5RPqah6EurxHKkHdZKU4Qh0g1MVSQl1XPqGulk+oq3kQ6vIeqQJ1i6VfCXWAUBdLCXVd+YS6Wj6hruZBqMt7pALUbdZyJ9QBQl0sJdR15RPqavmEupoHoS7vEXSoCx7OQqgDhLpYSqjryifU1fIJdTUPQl3eI8hQd/C0NUIdINTFUkJdVz6hrpZPqKt5EOryHkGFusPHpxLqAKEulhLquvIJdbV8Ql3Ng1CX9wgi1J0/D51QN5SEukBKqOvKJ9TV8gl1NQ9CXd4jaFCXALqFG6GusQ5C3XYHoa6vBg0ehLqamFCXzyfUnWhbke7lH4dsMS6kckUQ6g4OR6ireHiRT6ir5RPqah6EurxHUKCeLm1klUCoa6yDULfdQajrq0GDB6GuJibU5fMJdXttut1OaTdCXWMdhLrtDkJdXw0aPAh1NTGhLp9PqFtr0+12Sru5LMZuB6Gukk+oC4NQ1+ZBqKuJCXX5fELdXJs4FEeoK3kQ6iIpoa4rn1BXyyfU1TwIdXmPZEE93fRNIdSVPAh1kZRQ15VPqKvlE+pqHoS6vEcyoJ5u/EuoKxibKwl1gZRQ15VPqKvlE+pqHoS6vIffUO+45U6oKxmbKwl1gZRQ15VPqKvlE+pqHoS6vIefUO/UQyfUlYzNlYS6QEqo68on1NXyCXU1D0Jd3sMvqCcMxRHqSsbmSkJdICXUdeUT6mr5hLqaB6Eu7+EH1E2XfiXUlYzNlYS6QEqo68on1NXyCXU1D0Jd3sNrqP9/lgPb1mTf4xsAAAAASUVORK5CYII=;fontSize=12;fontStyle=1" vertex="1" parent="1">
          <mxGeometry x="40" y="180" width="80" height="80" as="geometry" />
        </mxCell>
        <mxCell id="zLIn52jZhEf5yXE7sG_Y-6" value="" style="fillColor=none;strokeColor=#808080;verticalAlign=top;fontStyle=0;fontColor=#147EBA;whiteSpace=wrap;html=1;fontSize=14;" vertex="1" parent="1">
          <mxGeometry x="180" y="494.5" width="258" height="129" as="geometry" />
        </mxCell>
        <mxCell id="zLIn52jZhEf5yXE7sG_Y-7" value="Upload data file" style="text;html=1;strokeColor=none;fillColor=none;align=center;verticalAlign=middle;whiteSpace=wrap;rounded=0;fontSize=11;fontStyle=0" vertex="1" parent="1">
          <mxGeometry x="227" y="280" width="90" height="30" as="geometry" />
        </mxCell>
        <mxCell id="zLIn52jZhEf5yXE7sG_Y-10" value="Metadata" style="text;html=1;strokeColor=none;fillColor=none;align=center;verticalAlign=middle;whiteSpace=wrap;rounded=0;fontSize=11;" vertex="1" parent="1">
          <mxGeometry x="90" y="533" width="90" height="30" as="geometry" />
        </mxCell>
        <mxCell id="zLIn52jZhEf5yXE7sG_Y-11" value="Job Processing" style="text;html=1;strokeColor=none;fillColor=none;align=center;verticalAlign=middle;whiteSpace=wrap;rounded=0;fontSize=11;" vertex="1" parent="1">
          <mxGeometry x="326" y="479" width="98" height="54" as="geometry" />
        </mxCell>
        <mxCell id="zLIn52jZhEf5yXE7sG_Y-15" style="edgeStyle=orthogonalEdgeStyle;rounded=1;orthogonalLoop=1;jettySize=auto;html=1;targetPerimeterSpacing=5;sourcePerimeterSpacing=25;strokeColor=#999999;" edge="1" parent="1" source="zLIn52jZhEf5yXE7sG_Y-13" target="rWVDaRYgZzf25Qfgkbk3-3">
          <mxGeometry relative="1" as="geometry">
            <Array as="points">
              <mxPoint x="460" y="550" />
            </Array>
          </mxGeometry>
        </mxCell>
        <mxCell id="zLIn52jZhEf5yXE7sG_Y-13" value="RAW" style="sketch=0;points=[[0,0,0],[0.25,0,0],[0.5,0,0],[0.75,0,0],[1,0,0],[0,1,0],[0.25,1,0],[0.5,1,0],[0.75,1,0],[1,1,0],[0,0.25,0],[0,0.5,0],[0,0.75,0],[1,0.25,0],[1,0.5,0],[1,0.75,0]];outlineConnect=0;fontColor=#232F3E;fillColor=#7AA116;strokeColor=#ffffff;dashed=0;verticalLabelPosition=bottom;verticalAlign=top;align=center;html=1;fontSize=12;fontStyle=1;aspect=fixed;shape=mxgraph.aws4.resourceIcon;resIcon=mxgraph.aws4.s3;rounded=1;fontFamily=Helvetica;" vertex="1" parent="1">
          <mxGeometry x="423" y="348" width="78" height="78" as="geometry" />
        </mxCell>
        <mxCell id="zLIn52jZhEf5yXE7sG_Y-17" value="Data Query" style="text;html=1;strokeColor=none;fillColor=none;align=center;verticalAlign=middle;whiteSpace=wrap;rounded=0;fontSize=11;fontStyle=0" vertex="1" parent="1">
          <mxGeometry x="149" y="362" width="90" height="30" as="geometry" />
        </mxCell>
      </root>
    </mxGraphModel>
  </diagram>
</mxfile>
